<svg width="339" height="296" viewBox="0 0 339 296" fill="none" xmlns="http://www.w3.org/2000/svg">
<g clip-path="url(#clip0)">
<path opacity="0.1" d="M235.899 40.9127C212.111 40.0863 189.455 32.4143 167.822 24.0187C146.188 15.6232 124.76 6.3205 101.527 1.87299C86.6086 -0.987957 69.5287 -1.39194 57.4953 6.60329C45.9175 14.3157 42.1759 27.5922 40.1654 39.9211C38.6511 49.2017 37.7617 58.9635 41.9076 67.6491C44.7892 73.6796 49.8981 78.7477 53.4339 84.5431C65.7356 104.64 57.0395 129.422 43.7123 149.045C37.464 158.248 30.2049 167.041 25.379 176.832C20.5532 186.623 18.3222 197.857 22.5453 207.85C26.7279 217.766 36.6995 225.2 47.5017 230.437C69.4405 241.065 95.2827 244.11 120.5 245.832C176.305 249.648 232.403 247.996 288.355 246.343C309.062 245.73 329.858 245.109 350.228 241.91C361.541 240.133 373.218 237.312 381.429 230.525C391.856 221.883 394.44 207.248 387.453 196.414C375.735 178.238 343.347 173.721 335.147 154.216C330.641 143.481 335.268 131.519 341.822 121.563C355.877 100.199 379.433 81.4618 380.671 57.0427C381.524 40.2736 370.2 23.4789 352.69 15.5424C334.339 7.22396 308.886 8.27065 295.353 22.0392C281.405 36.186 256.904 41.6398 235.899 40.9127Z" fill="#6C63FF"/>
<g opacity="0.9">
<path opacity="0.9" d="M262.759 91.3667H261.186C260.721 91.3667 260.344 91.7432 260.344 92.2077V117.343C260.344 117.807 260.721 118.184 261.186 118.184H262.759C263.224 118.184 263.601 117.807 263.601 117.343V92.2077C263.601 91.7432 263.224 91.3667 262.759 91.3667Z" fill="#3A3768"/>
<path opacity="0.9" d="M153.109 70.3594H152.965C152.501 70.3594 152.124 70.7359 152.124 71.2004V78.3473C152.124 78.8117 152.501 79.1883 152.965 79.1883H153.109C153.574 79.1883 153.95 78.8117 153.95 78.3473V71.2004C153.95 70.7359 153.574 70.3594 153.109 70.3594Z" fill="#3A3768"/>
<path opacity="0.9" d="M153.274 86.5225H152.899C152.434 86.5225 152.058 86.899 152.058 87.3635V101.048C152.058 101.512 152.434 101.889 152.899 101.889H153.274C153.739 101.889 154.116 101.512 154.116 101.048V87.3635C154.116 86.899 153.739 86.5225 153.274 86.5225Z" fill="#3A3768"/>
<path opacity="0.9" d="M153.208 107.265H152.932C152.467 107.265 152.091 107.642 152.091 108.106V121.922C152.091 122.387 152.467 122.763 152.932 122.763H153.208C153.673 122.763 154.05 122.387 154.05 121.922V108.106C154.05 107.642 153.673 107.265 153.208 107.265Z" fill="#3A3768"/>
<path opacity="0.9" d="M247.771 41.1843H167.491C159.576 41.1843 153.16 47.5954 153.16 55.5038V248.098C153.16 256.007 159.576 262.418 167.491 262.418H247.771C255.685 262.418 262.101 256.007 262.101 248.098V55.5038C262.101 47.5954 255.685 41.1843 247.771 41.1843Z" fill="#3A3768"/>
<path opacity="0.9" d="M210.909 47.7876H198.541C197.756 47.7876 197.119 48.4239 197.119 49.2089V49.4513C197.119 50.2362 197.756 50.8726 198.541 50.8726H210.909C211.695 50.8726 212.332 50.2362 212.332 49.4513V49.2089C212.332 48.4239 211.695 47.7876 210.909 47.7876Z" fill="#E6E8EC"/>
<path opacity="0.9" d="M216.386 51.0857C217.354 51.0857 218.139 50.3014 218.139 49.3339C218.139 48.3664 217.354 47.582 216.386 47.582C215.417 47.582 214.633 48.3664 214.633 49.3339C214.633 50.3014 215.417 51.0857 216.386 51.0857Z" fill="#E6E8EC"/>
</g>
<path opacity="0.1" d="M87.4907 274.993C128.083 274.993 160.989 271.642 160.989 267.508C160.989 263.374 128.083 260.023 87.4907 260.023C46.8987 260.023 13.9924 263.374 13.9924 267.508C13.9924 271.642 46.8987 274.993 87.4907 274.993Z" fill="#6C63FF"/>
<path opacity="0.1" d="M250.917 296C269.933 296 285.348 294.43 285.348 292.493C285.348 290.556 269.933 288.985 250.917 288.985C231.9 288.985 216.485 290.556 216.485 292.493C216.485 294.43 231.9 296 250.917 296Z" fill="#6C63FF"/>
<path d="M246.708 46.9431H234.248V48.4452C234.248 50.3329 233.498 52.1432 232.162 53.478C230.826 54.8128 229.015 55.5627 227.125 55.5627H187.364C185.475 55.5627 183.663 54.8128 182.327 53.478C180.992 52.1432 180.241 50.3329 180.241 48.4452V46.9431H168.539C167.402 46.9431 166.278 47.1668 165.228 47.6013C164.179 48.0358 163.225 48.6726 162.422 49.4755C161.619 50.2783 160.982 51.2314 160.547 52.2803C160.113 53.3291 159.89 54.4533 159.89 55.5884V248.007C159.89 249.142 160.113 250.266 160.547 251.315C160.982 252.364 161.619 253.317 162.422 254.12C163.225 254.922 164.179 255.559 165.228 255.994C166.278 256.428 167.402 256.652 168.539 256.652H246.708C249.003 256.652 251.204 255.741 252.826 254.12C254.449 252.498 255.36 250.299 255.36 248.007V55.5884C255.36 53.2955 254.449 51.0966 252.826 49.4753C251.204 47.854 249.003 46.9431 246.708 46.9431Z" fill="#6C63FF"/>
<path d="M299.815 31.4778C299.815 31.4778 268.868 29.6121 272.517 51.2804C272.517 51.2804 271.782 55.1109 275.267 56.848C275.267 56.848 275.322 55.2431 278.439 55.7867C279.549 55.9743 280.678 56.0285 281.802 55.9483C283.321 55.8469 284.765 55.2524 285.915 54.2552C285.915 54.2552 294.611 50.6634 297.996 36.4578C297.996 36.4578 300.499 33.3581 300.4 32.5612L295.177 34.7904C295.177 34.7904 296.959 38.5549 295.544 41.6839C295.544 41.6839 295.375 34.9263 294.372 35.0732C294.166 35.1026 291.656 36.377 291.656 36.377C291.656 36.377 294.728 42.9326 292.391 47.6996C292.391 47.6996 293.269 39.6199 290.678 36.8508L287.002 38.9956C287.002 38.9956 290.59 45.7678 288.16 51.2951C288.16 51.2951 288.781 42.8187 286.231 39.5171L282.901 42.1136C282.901 42.1136 286.271 48.7867 284.216 53.3701C284.216 53.3701 283.944 43.5055 282.177 42.76C282.177 42.76 279.262 45.3308 278.817 46.3812C278.817 46.3812 281.125 51.229 279.696 53.7851C279.696 53.7851 278.817 47.2112 278.097 47.1744C278.097 47.1744 275.193 51.5301 274.892 54.5196C274.892 54.5196 275.017 50.0795 277.391 46.7631C277.391 46.7631 274.587 47.2442 272.947 49.0621C272.947 49.0621 273.4 45.9845 278.093 45.7127C278.093 45.7127 280.493 42.4074 281.136 42.2091C281.136 42.2091 276.45 41.8161 273.609 43.0758C273.609 43.0758 276.108 40.1708 281.997 41.4929L285.282 38.8083C285.282 38.8083 279.115 37.9672 276.498 38.8964C276.498 38.8964 279.512 36.3256 286.172 38.1986L289.752 36.0612C289.752 36.0612 284.492 34.9263 281.357 35.3266C281.357 35.3266 284.665 33.5454 290.799 35.4772L293.372 34.3277C293.372 34.3277 289.517 33.5711 288.388 33.45C287.26 33.3288 287.201 33.0203 287.201 33.0203C289.66 32.612 292.185 32.8995 294.489 33.8503C294.489 33.8503 299.907 31.8193 299.815 31.4778Z" fill="#D85517"/>
<path d="M268.074 21.8408C268.074 21.8408 254.107 20.9998 255.739 30.7909C255.739 30.7909 255.412 32.5207 256.981 33.3067C256.981 33.3067 257.007 32.5721 258.415 32.8256C258.916 32.9099 259.426 32.9345 259.933 32.899C260.619 32.8529 261.272 32.5848 261.793 32.1351C261.793 32.1351 265.722 30.5118 267.251 24.0921C267.251 24.0921 268.383 22.6929 268.353 22.333L265.994 23.3392C265.994 23.3392 266.798 25.0397 266.163 26.4536C266.163 26.4536 266.089 23.4017 265.633 23.4715C265.541 23.4715 264.409 24.0628 264.409 24.0628C264.409 24.0628 265.795 27.0229 264.748 29.1787C264.748 29.1787 265.145 25.5281 263.976 24.2758L262.314 25.2453C262.314 25.2453 263.935 28.3046 262.836 30.802C262.836 30.802 263.119 26.9714 261.965 25.4804L260.458 26.6556C260.458 26.6556 261.984 29.6708 261.054 31.7421C261.054 31.7421 260.932 27.2836 260.135 26.9457C260.135 26.9457 258.815 28.1063 258.617 28.5837C258.617 28.5837 259.657 30.7873 259.01 31.9295C259.01 31.9295 258.613 28.9583 258.275 28.9436C258.275 28.9436 256.963 30.9121 256.827 32.249C256.891 31.0027 257.28 29.7947 257.955 28.7453C257.199 28.8883 256.501 29.2496 255.949 29.7847C255.949 29.7847 256.151 28.3927 258.279 28.2715C258.279 28.2715 259.363 26.7768 259.653 26.685C259.653 26.685 257.536 26.5087 256.254 27.078C256.254 27.078 257.382 25.7668 260.043 26.3434L261.513 25.1315C261.513 25.1315 258.727 24.7642 257.544 25.1719C257.544 25.1719 258.907 24.0113 261.914 24.856L263.531 23.8901C263.531 23.8901 261.157 23.3796 259.742 23.5633C259.742 23.5633 261.234 22.759 264.005 23.6294L265.163 23.1115C265.163 23.1115 263.424 22.77 262.914 22.7149C262.403 22.6598 262.377 22.5203 262.377 22.5203C263.479 22.337 264.611 22.4641 265.644 22.8875C265.644 22.8875 268.114 21.9951 268.074 21.8408Z" fill="#D85517"/>
<path d="M14.779 251.709C22.9413 251.709 29.5581 250.59 29.5581 249.211C29.5581 247.832 22.9413 246.714 14.779 246.714C6.6168 246.714 0 247.832 0 249.211C0 250.59 6.6168 251.709 14.779 251.709Z" fill="#D85517"/>
<path d="M20.8877 245.124C21.5634 244.576 22.0558 243.836 22.2991 243.001C22.4792 242.156 22.119 241.165 21.314 240.838C20.4099 240.489 19.4432 241.117 18.7118 241.749C17.9804 242.38 17.1387 243.104 16.1794 242.968C16.6708 242.52 17.0378 241.953 17.2445 241.322C17.4513 240.69 17.4908 240.016 17.3592 239.365C17.3196 239.094 17.205 238.84 17.0284 238.631C16.5286 238.094 15.6171 238.326 15.0143 238.748C13.103 240.092 12.5701 242.685 12.5628 245.021C12.368 244.176 12.5297 243.298 12.526 242.45C12.5223 241.602 12.2834 240.614 11.5557 240.166C11.1044 239.923 10.5976 239.803 10.0855 239.817C9.22543 239.787 8.26981 239.872 7.68174 240.5C6.94664 241.278 7.14144 242.59 7.7773 243.438C8.41315 244.286 9.37613 244.834 10.2619 245.429C10.9754 245.851 11.5836 246.43 12.0408 247.122C12.0951 247.217 12.1394 247.318 12.1732 247.423H17.5577C18.7667 246.81 19.8869 246.037 20.8877 245.124Z" fill="#D85517"/>
<path d="M305.273 214.303C305.273 214.303 308.453 218.461 303.803 224.733C299.154 231.006 295.324 236.302 296.875 240.213C296.875 240.213 303.888 228.564 309.596 228.399C315.304 228.233 311.551 221.311 305.273 214.303Z" fill="#D85517"/>
<path opacity="0.1" d="M305.273 214.303C305.55 214.705 305.769 215.144 305.924 215.607C311.492 222.144 314.458 228.248 309.103 228.399C304.119 228.542 298.135 237.452 296.706 239.699C296.751 239.874 296.807 240.046 296.875 240.213C296.875 240.213 303.887 228.564 309.595 228.399C315.303 228.233 311.551 221.311 305.273 214.303Z" fill="black"/>
<path d="M311.183 219.614C311.183 221.083 311.018 222.262 310.816 222.262C310.614 222.262 310.448 221.076 310.448 219.614C310.448 218.152 310.654 218.843 310.856 218.843C311.058 218.843 311.183 218.145 311.183 219.614Z" fill="#FFD037"/>
<path d="M313.212 221.347C311.926 222.045 310.808 222.471 310.709 222.291C310.61 222.111 311.577 221.402 312.863 220.701C314.149 219.999 313.638 220.513 313.738 220.701C313.837 220.888 314.499 220.646 313.212 221.347Z" fill="#FFD037"/>
<path d="M288.476 214.303C288.476 214.303 285.297 218.461 289.947 224.733C294.596 231.006 298.426 236.302 296.878 240.213C296.878 240.213 289.866 228.564 284.158 228.399C278.45 228.233 282.199 221.311 288.476 214.303Z" fill="#D85517"/>
<path opacity="0.1" d="M288.476 214.303C288.198 214.704 287.979 215.143 287.826 215.607C282.257 222.144 279.291 228.248 284.643 228.399C289.63 228.542 295.61 237.452 297.044 239.699C296.997 239.874 296.94 240.045 296.875 240.213C296.875 240.213 289.862 228.564 284.154 228.399C278.446 228.233 282.198 221.311 288.476 214.303Z" fill="black"/>
<path d="M282.562 219.614C282.562 221.083 282.728 222.262 282.93 222.262C283.132 222.262 283.298 221.076 283.298 219.614C283.298 218.152 283.092 218.843 282.89 218.843C282.687 218.843 282.562 218.145 282.562 219.614Z" fill="#FFD037"/>
<path d="M280.523 221.347C281.805 222.045 282.926 222.471 283.022 222.291C283.118 222.111 282.158 221.402 280.872 220.701C279.585 219.999 280.093 220.513 279.997 220.701C279.902 220.888 279.251 220.646 280.523 221.347Z" fill="#FFD037"/>
<path d="M283.577 239.67C283.577 239.67 292.468 239.394 295.147 237.488C297.826 235.582 308.823 233.305 309.481 236.364C310.139 239.424 322.842 251.573 312.789 251.653C302.737 251.734 289.465 250.089 286.793 248.462C284.121 246.835 283.577 239.67 283.577 239.67Z" fill="#A8A8A8"/>
<path opacity="0.2" d="M312.991 250.588C302.954 250.669 289.667 249.024 286.995 247.397C284.955 246.159 284.146 241.712 283.874 239.659H283.577C283.577 239.659 284.139 246.824 286.815 248.451C289.49 250.078 302.774 251.723 312.811 251.642C315.708 251.617 316.711 250.588 316.656 249.072C316.252 249.993 315.149 250.57 312.991 250.588Z" fill="black"/>
<path opacity="0.3" d="M243.522 179.175H214.842V207.832H243.522V179.175Z" fill="#3F3D56"/>
<path opacity="0.3" d="M201.254 141.347H172.574V170.004H201.254V141.347Z" fill="#3F3D56"/>
<path opacity="0.3" d="M204.01 216.356H175.331V245.013H204.01V216.356Z" fill="#3F3D56"/>
<path d="M197.611 70.9839H168.932V99.6411H197.611V70.9839Z" fill="white"/>
<path d="M188.838 80.3452L187.82 81.3588C188.154 81.6921 188.419 82.088 188.6 82.5238C188.781 82.9595 188.874 83.4267 188.874 83.8984C188.874 84.3702 188.781 84.8374 188.6 85.2731C188.419 85.7089 188.154 86.1048 187.82 86.438L188.838 87.459C189.782 86.5155 190.312 85.2361 190.312 83.9021C190.312 82.5681 189.782 81.2887 188.838 80.3452Z" fill="#D85517"/>
<path d="M190.874 78.3876L189.871 79.3903C191.067 80.587 191.738 82.2091 191.738 83.9002C191.738 85.5914 191.067 87.2134 189.871 88.4102L190.874 89.4128C192.336 87.9514 193.157 85.9699 193.157 83.9039C193.157 81.8379 192.336 79.8564 190.874 78.395V78.3876ZM186.096 82.141V77.5503H184.681L180.447 81.076H174.802L173.39 81.7811V86.7208L174.802 87.4259L178.345 93.0707H180.462L179.139 87.4259H180.462L184.696 90.2501H186.111V85.6594C186.511 85.5694 186.868 85.3462 187.124 85.0265C187.38 84.7068 187.519 84.3096 187.519 83.9002C187.519 83.4908 187.38 83.0936 187.124 82.7739C186.868 82.4542 186.511 82.231 186.111 82.141H186.096Z" fill="#D85517"/>
<path d="M237.773 168.843L216.507 188.07L235.749 209.32L257.016 190.092L237.773 168.843Z" fill="white"/>
<path d="M228.456 185.143L230.536 183.255L241.93 195.804L239.835 197.699L228.456 185.143ZM233.37 196.895L235.465 195.004L238.773 198.676L236.678 200.568L233.37 196.895ZM237.759 189.124L239.854 187.229L245.062 192.984L242.97 194.875L237.759 189.124ZM238.056 183.145L240.151 181.25L248.204 190.141L246.109 192.036L238.056 183.145Z" fill="#D85517"/>
<path d="M243.048 105.517H214.368V134.175H243.048V105.517Z" fill="white"/>
<path d="M234.153 116.414L230.305 122.29C230.615 122.666 230.784 123.139 230.782 123.627C230.76 124.173 230.526 124.689 230.132 125.068C229.737 125.446 229.211 125.658 228.664 125.658C228.116 125.658 227.59 125.446 227.196 125.068C226.801 124.689 226.567 124.173 226.545 123.627C226.546 123.495 226.558 123.364 226.581 123.234L224.038 121.765C223.708 122.079 223.287 122.279 222.835 122.336C222.383 122.393 221.925 122.303 221.528 122.081L218.823 124.611V127.134C218.823 127.634 219.022 128.112 219.376 128.465C219.729 128.818 220.208 129.017 220.708 129.018H236.711C237.21 129.016 237.689 128.817 238.042 128.464C238.395 128.111 238.595 127.633 238.597 127.134V117.762L236.024 116.047C235.654 116.337 235.197 116.495 234.726 116.495C234.537 116.494 234.35 116.468 234.168 116.418L234.153 116.414Z" fill="#D85517"/>
<path d="M222.571 118.125C222.85 118.125 223.126 118.179 223.383 118.285C223.64 118.391 223.874 118.547 224.071 118.744C224.268 118.94 224.424 119.173 224.531 119.43C224.637 119.687 224.692 119.963 224.692 120.241C224.692 120.333 224.692 120.428 224.674 120.516L227.328 121.985C227.705 121.674 228.18 121.505 228.669 121.508C228.822 121.508 228.975 121.525 229.125 121.559L232.984 115.588C232.792 115.316 232.666 115.003 232.617 114.674C232.569 114.345 232.598 114.009 232.704 113.694C232.809 113.378 232.988 113.092 233.225 112.859C233.462 112.625 233.75 112.451 234.068 112.349C234.385 112.248 234.721 112.223 235.05 112.276C235.378 112.33 235.69 112.459 235.959 112.655C236.228 112.851 236.447 113.108 236.598 113.404C236.749 113.701 236.828 114.028 236.829 114.361C236.828 114.529 236.808 114.697 236.77 114.86L238.608 116.076V112.543C238.606 112.044 238.406 111.567 238.053 111.214C237.7 110.862 237.221 110.664 236.722 110.663H220.708C220.209 110.663 219.73 110.861 219.376 111.213C219.023 111.566 218.823 112.044 218.823 112.543V122.657L220.587 120.968C220.5 120.733 220.455 120.484 220.454 120.233C220.456 119.674 220.68 119.137 221.077 118.742C221.474 118.347 222.011 118.125 222.571 118.125Z" fill="#D85517"/>
<path d="M206.793 137.469H178.113V166.126H206.793V137.469Z" fill="white"/>
<path d="M201.107 142.669L183.465 152.218C183.405 152.251 183.355 152.299 183.321 152.359C183.287 152.418 183.271 152.486 183.273 152.554C183.276 152.623 183.298 152.689 183.336 152.746C183.374 152.802 183.428 152.847 183.49 152.875L186.501 154.01C186.675 154.078 186.817 154.209 186.897 154.377L189.235 159.188C189.279 159.401 189.672 159.46 189.676 159.243L189.309 155.266C189.329 154.971 189.443 154.689 189.632 154.462L198.777 145.508C198.803 145.483 198.835 145.464 198.87 145.454C198.906 145.444 198.943 145.442 198.979 145.449C199.013 145.458 199.045 145.474 199.07 145.498C199.096 145.522 199.116 145.552 199.127 145.585C199.139 145.618 199.142 145.654 199.135 145.689C199.129 145.723 199.115 145.756 199.093 145.783L191.209 155.413C191.042 155.648 190.936 155.921 190.9 156.206L190.43 159.64C190.466 159.941 190.702 160.055 190.893 159.787L192.591 157.793C192.648 157.718 192.732 157.668 192.825 157.653C192.918 157.638 193.013 157.659 193.091 157.712L197.468 160.9C197.517 160.931 197.573 160.951 197.631 160.957C197.688 160.962 197.747 160.954 197.801 160.933C197.855 160.912 197.904 160.878 197.942 160.835C197.981 160.791 198.009 160.739 198.023 160.683L201.614 143.055C201.625 142.989 201.619 142.921 201.594 142.859C201.57 142.797 201.529 142.742 201.476 142.701C201.423 142.661 201.36 142.635 201.294 142.627C201.228 142.62 201.16 142.63 201.099 142.658L201.107 142.669Z" fill="#D85517"/>
<path d="M112.429 206.609C112.642 208.93 110.889 211.178 111.4 213.447C111.51 213.932 111.719 214.391 111.796 214.88C112.006 216.228 111.201 217.506 110.433 218.633L103.839 228.307C103.572 228.731 103.255 229.122 102.894 229.471C101.63 230.573 99.741 230.473 98.0833 230.808C96.92 231.046 95.8217 231.532 94.8636 232.233C94.8197 232.266 94.7904 232.314 94.7822 232.369C94.7739 232.423 94.7873 232.478 94.8195 232.523C95.0936 232.895 95.4565 233.192 95.875 233.389C96.2935 233.585 96.7544 233.674 97.2159 233.647C97.3886 233.874 97.2159 234.209 96.977 234.381C96.6095 234.627 96.1353 234.69 96.0655 235.292C96.0406 235.501 96.0831 235.712 96.1868 235.894C96.4522 236.301 96.8664 236.589 97.3409 236.695C99.6233 237.393 102.093 236.17 103.799 234.491C105.504 232.813 106.739 230.72 108.415 229.019C109.345 228.083 110.4 227.275 111.355 226.364C113.267 224.55 114.748 222.324 116.181 220.12C116.648 219.478 117.001 218.76 117.225 217.998C117.402 217.241 117.321 216.444 117.527 215.695C117.791 214.718 118.512 213.936 119.107 213.124C120.279 211.516 121.059 209.543 120.904 207.56C120.75 205.577 119.522 203.616 117.648 202.944C117.064 202.708 116.419 202.668 115.81 202.83C115.042 203.069 114.476 203.704 113.95 204.299L112.701 205.746C112.384 206.06 112.134 206.435 111.966 206.848C111.885 207.056 111.867 207.283 111.912 207.501C111.958 207.719 112.066 207.92 112.223 208.078" fill="#FBBEBE"/>
<path opacity="0.05" d="M112.429 206.609C112.642 208.93 110.889 211.178 111.4 213.447C111.51 213.932 111.719 214.391 111.796 214.88C112.006 216.228 111.201 217.506 110.433 218.633L103.839 228.307C103.572 228.731 103.255 229.122 102.894 229.471C101.63 230.573 99.741 230.473 98.0833 230.808C96.92 231.046 95.8217 231.532 94.8636 232.233C94.8197 232.266 94.7904 232.314 94.7822 232.369C94.7739 232.423 94.7873 232.478 94.8195 232.523C95.0936 232.895 95.4565 233.192 95.875 233.389C96.2935 233.585 96.7544 233.674 97.2159 233.647C97.3886 233.874 97.2159 234.209 96.977 234.381C96.6095 234.627 96.1353 234.69 96.0655 235.292C96.0406 235.501 96.0831 235.712 96.1868 235.894C96.4522 236.301 96.8664 236.589 97.3409 236.695C99.6233 237.393 102.093 236.17 103.799 234.491C105.504 232.813 106.739 230.72 108.415 229.019C109.345 228.083 110.4 227.275 111.355 226.364C113.267 224.55 114.748 222.324 116.181 220.12C116.648 219.478 117.001 218.76 117.225 217.998C117.402 217.241 117.321 216.444 117.527 215.695C117.791 214.718 118.512 213.936 119.107 213.124C120.279 211.516 121.059 209.543 120.904 207.56C120.75 205.577 119.522 203.616 117.648 202.944C117.064 202.708 116.419 202.668 115.81 202.83C115.042 203.069 114.476 203.704 113.95 204.299L112.701 205.746C112.384 206.06 112.134 206.435 111.966 206.848C111.885 207.056 111.867 207.283 111.912 207.501C111.958 207.719 112.066 207.92 112.223 208.078" fill="black"/>
<path d="M62.1999 216.47C62.5675 217.631 62.935 218.791 63.3797 219.922C64.1924 221.884 65.2165 223.75 66.4341 225.49C67.218 226.635 68.0608 227.738 68.9591 228.795C70.0838 230.121 71.3408 231.454 71.7377 233.147C71.9693 234.124 71.8921 235.149 71.9877 236.148C72.0832 237.147 72.4104 238.208 73.219 238.807C73.833 239.186 74.5282 239.415 75.2478 239.475C75.755 239.556 76.3909 239.582 76.6555 239.141C76.7482 238.962 76.7961 238.763 76.7952 238.561L76.9201 237.092C76.9459 236.776 77.0561 236.357 77.3722 236.357C77.6883 236.357 77.85 236.765 78.1073 236.952C78.2032 237.004 78.3086 237.035 78.4171 237.045C78.5256 237.054 78.6348 237.041 78.7381 237.007C78.8414 236.972 78.9366 236.917 79.0177 236.845C79.0989 236.772 79.1643 236.684 79.21 236.585C79.3745 236.174 79.3849 235.717 79.2394 235.299C79.0198 234.468 78.627 233.693 78.0868 233.024C77.5465 232.355 76.8709 231.807 76.1042 231.418C75.5712 231.199 75.0594 230.932 74.5752 230.621C74.0835 230.196 73.6758 229.682 73.3733 229.107C70.5947 224.535 67.8013 219.926 65.8386 214.964C65.4522 214.075 65.1912 213.137 65.0631 212.177C65.0232 211.196 65.0638 210.213 65.1844 209.239C65.2993 207.476 65.1356 205.706 64.6992 203.994C64.6037 203.544 64.4335 203.114 64.1957 202.72C63.3908 201.493 61.4905 201.313 60.2923 202.158C59.8515 202.498 59.486 202.925 59.219 203.413C58.952 203.901 58.7894 204.439 58.7413 204.993C58.6531 205.981 59.2265 207.013 59.5168 207.931C60.4161 210.776 61.3105 213.623 62.1999 216.47Z" fill="#A1616A"/>
<path opacity="0.05" d="M62.1999 216.47C62.5675 217.631 62.935 218.791 63.3797 219.922C64.1924 221.884 65.2165 223.75 66.4341 225.49C67.218 226.635 68.0608 227.738 68.9591 228.795C70.0838 230.121 71.3408 231.454 71.7377 233.147C71.9693 234.124 71.8921 235.149 71.9877 236.148C72.0832 237.147 72.4104 238.208 73.219 238.807C73.833 239.186 74.5282 239.415 75.2478 239.475C75.755 239.556 76.3909 239.582 76.6555 239.141C76.7482 238.962 76.7961 238.763 76.7952 238.561L76.9201 237.092C76.9459 236.776 77.0561 236.357 77.3722 236.357C77.6883 236.357 77.85 236.765 78.1073 236.952C78.2032 237.004 78.3086 237.035 78.4171 237.045C78.5256 237.054 78.6348 237.041 78.7381 237.007C78.8414 236.972 78.9366 236.917 79.0177 236.845C79.0989 236.772 79.1643 236.684 79.21 236.585C79.3745 236.174 79.3849 235.717 79.2394 235.299C79.0198 234.468 78.627 233.693 78.0868 233.024C77.5465 232.355 76.8709 231.807 76.1042 231.418C75.5712 231.199 75.0594 230.932 74.5752 230.621C74.0835 230.196 73.6758 229.682 73.3733 229.107C70.5947 224.535 67.8013 219.926 65.8386 214.964C65.4522 214.075 65.1912 213.137 65.0631 212.177C65.0232 211.196 65.0638 210.213 65.1844 209.239C65.2993 207.476 65.1356 205.706 64.6992 203.994C64.6037 203.544 64.4335 203.114 64.1957 202.72C63.3908 201.493 61.4905 201.313 60.2923 202.158C59.8515 202.498 59.486 202.925 59.219 203.413C58.952 203.901 58.7894 204.439 58.7413 204.993C58.6531 205.981 59.2265 207.013 59.5168 207.931C60.4161 210.776 61.3105 213.623 62.1999 216.47Z" fill="black"/>
<path d="M117.975 260.078C116.534 260.956 114.741 261.008 113.065 260.813C112.796 260.78 112.476 260.758 112.304 260.967C112.054 261.268 112.348 261.702 112.653 261.959C113.642 262.698 114.803 263.174 116.027 263.343C117.123 263.496 118.228 263.57 119.335 263.564C122.345 263.615 125.37 263.663 128.351 263.23C128.523 263.218 128.691 263.169 128.843 263.086C129.032 262.95 129.163 262.749 129.211 262.521C129.283 262.126 129.248 261.718 129.11 261.341C128.972 260.964 128.735 260.631 128.424 260.376C127.798 259.876 127.085 259.494 126.322 259.248L123.705 258.231C123.091 257.992 122.103 257.357 121.437 257.408C120.202 257.489 119.015 259.469 117.975 260.078Z" fill="#3F3D56"/>
<path d="M124.551 266.223C123.345 267.301 121.777 267.886 120.158 267.86C119.747 267.86 119.173 267.938 119.173 268.349C119.179 268.472 119.22 268.59 119.291 268.69C119.804 269.542 120.612 270.175 121.562 270.468C122.46 270.681 123.387 270.74 124.304 270.641L126.987 270.501C127.495 270.475 128.005 270.45 128.509 270.387C129.013 270.325 129.56 270.222 130.086 270.141C131.38 269.959 132.688 269.897 133.993 269.958C134.162 269.991 134.337 269.985 134.504 269.94C134.671 269.896 134.825 269.814 134.956 269.7C135.195 269.399 135.055 268.966 134.978 268.599C134.816 267.824 134.978 267.008 134.827 266.226C134.57 264.86 133.394 263.81 132.089 263.314C130.883 262.855 128.744 262.33 127.601 263.093C126.374 263.905 125.635 265.242 124.551 266.223Z" fill="#3F3D56"/>
<path d="M119.25 231.531C118.148 232.982 117.045 234.657 117.302 236.449C117.449 237.415 117.99 238.267 118.387 239.163C118.885 240.392 119.255 241.67 119.489 242.975C119.897 244.874 120.305 246.776 120.559 248.701C120.84 250.88 120.92 253.081 120.798 255.275C120.765 255.803 120.706 256.376 120.338 256.744C120.191 256.891 120 257.012 119.938 257.21C119.898 257.398 119.928 257.594 120.022 257.761C120.696 259.139 121.863 260.213 123.293 260.769C124.713 261.313 126.22 261.594 127.741 261.599C127.942 261.622 128.147 261.595 128.336 261.522C128.54 261.399 128.701 261.215 128.796 260.997C129.898 258.903 129.284 256.376 129.303 254.019C129.303 252.046 129.781 250.093 129.696 248.12C129.626 246.541 129.204 244.999 129.049 243.423C128.796 240.852 129.27 238.245 129.744 235.692C130.111 233.739 130.479 231.781 130.938 229.846C131.172 228.653 131.599 227.507 132.203 226.452C132.717 225.64 133.416 224.961 134.004 224.197C135.63 222.063 136.353 219.377 136.018 216.716C135.981 216.452 132.232 217.664 131.909 217.818C130.557 218.385 129.314 219.182 128.233 220.172C127.366 220.995 126.686 222.096 125.925 223.022C124.852 224.327 123.796 225.639 122.757 226.959C121.571 228.472 120.402 229.996 119.25 231.531Z" fill="#464353"/>
<path opacity="0.05" d="M119.25 231.531C118.148 232.982 117.045 234.657 117.302 236.449C117.449 237.415 117.99 238.267 118.387 239.163C118.885 240.392 119.255 241.67 119.489 242.975C119.897 244.874 120.305 246.776 120.559 248.701C120.84 250.88 120.92 253.081 120.798 255.275C120.765 255.803 120.706 256.376 120.338 256.744C120.191 256.891 120 257.012 119.938 257.21C119.898 257.398 119.928 257.594 120.022 257.761C120.696 259.139 121.863 260.213 123.293 260.769C124.713 261.313 126.22 261.594 127.741 261.599C127.942 261.622 128.147 261.595 128.336 261.522C128.54 261.399 128.701 261.215 128.796 260.997C129.898 258.903 129.284 256.376 129.303 254.019C129.303 252.046 129.781 250.093 129.696 248.12C129.626 246.541 129.204 244.999 129.049 243.423C128.796 240.852 129.27 238.245 129.744 235.692C130.111 233.739 130.479 231.781 130.938 229.846C131.172 228.653 131.599 227.507 132.203 226.452C132.717 225.64 133.416 224.961 134.004 224.197C135.63 222.063 136.353 219.377 136.018 216.716C135.981 216.452 132.232 217.664 131.909 217.818C130.557 218.385 129.314 219.182 128.233 220.172C127.366 220.995 126.686 222.096 125.925 223.022C124.852 224.327 123.796 225.639 122.757 226.959C121.571 228.472 120.402 229.996 119.25 231.531Z" fill="black"/>
<path d="M127.212 220.374C127.447 221.498 128.538 222.357 128.568 223.507C128.593 224.425 127.939 225.196 127.465 225.986C127.02 226.802 126.643 227.655 126.34 228.535C125.448 230.822 124.34 233.019 123.033 235.097C122.404 236.096 121.698 237.18 121.845 238.351C121.944 238.898 122.137 239.424 122.415 239.905L124.304 243.655C124.718 244.403 125.042 245.198 125.267 246.023C125.433 246.736 125.447 247.492 125.543 248.198C125.841 250.497 126.917 252.81 126.278 255.04C126.223 255.231 126.021 255.462 125.87 255.33C126.495 256.494 126.998 257.669 126.947 259.002C126.925 259.696 126.712 260.416 126.969 261.063C127.113 261.304 127.21 261.571 127.256 261.849C127.256 262.036 127.167 262.216 127.149 262.403C127.098 262.932 127.583 263.376 128.09 263.545C128.597 263.714 129.148 263.703 129.659 263.854C130.644 264.148 131.343 264.992 132.188 265.58C133.042 266.171 134.05 266.499 135.088 266.524C135.235 266.539 135.384 266.51 135.514 266.439C135.588 266.375 135.648 266.295 135.689 266.206C135.73 266.117 135.752 266.02 135.753 265.922C135.799 265.451 135.727 264.977 135.546 264.541C135.364 264.105 135.079 263.72 134.713 263.42C134.56 263.317 134.434 263.179 134.346 263.016C134.298 262.871 134.286 262.716 134.309 262.565C134.463 260.503 134.426 258.431 134.199 256.376C134.099 255.725 134.067 255.066 134.103 254.408C134.212 253.868 134.265 253.317 134.261 252.766C134.145 252.228 133.976 251.703 133.758 251.198C133.467 250.262 133.548 249.255 133.519 248.26C133.409 246.561 133.131 244.877 132.688 243.232C132.591 242.569 132.321 241.944 131.905 241.418C131.512 241.007 130.876 240.617 131.027 240.07C131.11 239.868 131.235 239.685 131.394 239.534C131.577 239.305 131.712 239.042 131.79 238.76C131.867 238.477 131.887 238.182 131.846 237.892C132.011 237.934 132.186 237.918 132.34 237.845C132.494 237.773 132.619 237.649 132.692 237.496C135.816 235.951 138.203 233.238 139.337 229.945C139.402 229.707 139.502 229.481 139.635 229.273C139.918 228.876 140.414 228.703 140.851 228.483C142.226 227.793 143.174 226.496 144.045 225.229C144.593 224.521 145.011 223.722 145.28 222.868C145.399 222.308 145.456 221.736 145.449 221.164L145.526 218.226C145.541 218.032 145.523 217.837 145.471 217.649C145.396 217.473 145.288 217.313 145.151 217.179C144.313 216.295 143.213 215.703 142.013 215.489C141.208 215.346 140.384 215.372 139.568 215.306C137.988 215.174 136.426 214.685 134.842 214.799C132.357 214.983 130.145 216.705 128.961 218.901C128.527 219.687 128.094 220.348 127.212 220.374Z" fill="#464353"/>
<path d="M44.7376 265.352C45.2802 265.54 45.8568 265.609 46.4283 265.554C46.4688 265.088 47.0973 264.985 47.5641 265.007C47.7961 264.996 48.0271 265.046 48.233 265.154C48.3506 265.227 48.4388 265.337 48.5528 265.415C48.7556 265.526 48.9831 265.584 49.2143 265.584L51.6475 265.789C52.7318 265.881 53.8528 265.965 54.8746 265.576C55.0781 265.516 55.2588 265.396 55.3928 265.231C55.6685 264.838 55.3928 264.272 55.0252 263.986C54.6577 263.699 54.1542 263.567 53.7719 263.273C52.9266 262.631 52.8126 261.437 52.3642 260.468C52.05 259.859 51.6597 259.292 51.2028 258.782C50.871 258.343 50.4844 257.948 50.0523 257.607C49.0783 256.902 47.9537 256.916 46.8106 256.817C46.002 256.744 45.2412 256.696 44.6604 257.412C43.9437 258.301 44.2304 260.093 44.2745 261.154C44.3181 262.564 44.4729 263.967 44.7376 265.352Z" fill="#514E7F"/>
<path opacity="0.05" d="M44.7376 265.352C45.2802 265.54 45.8568 265.609 46.4283 265.554C46.4688 265.088 47.0973 264.985 47.5641 265.007C47.7961 264.996 48.0271 265.046 48.233 265.154C48.3506 265.227 48.4388 265.337 48.5528 265.415C48.7556 265.526 48.9831 265.584 49.2143 265.584L51.6475 265.789C52.7318 265.881 53.8528 265.965 54.8746 265.576C55.0781 265.516 55.2588 265.396 55.3928 265.231C55.6685 264.838 55.3928 264.272 55.0252 263.986C54.6577 263.699 54.1542 263.567 53.7719 263.273C52.9266 262.631 52.8126 261.437 52.3642 260.468C52.05 259.859 51.6597 259.292 51.2028 258.782C50.871 258.343 50.4844 257.948 50.0523 257.607C49.0783 256.902 47.9537 256.916 46.8106 256.817C46.002 256.744 45.2412 256.696 44.6604 257.412C43.9437 258.301 44.2304 260.093 44.2745 261.154C44.3181 262.564 44.4729 263.967 44.7376 265.352Z" fill="black"/>
<path d="M45.7229 218.093C44.9878 218.332 44.657 219.257 44.793 220.029C44.929 220.8 45.3921 221.461 45.7743 222.14C46.8549 224.076 47.3254 226.291 48.2332 228.31C48.9132 229.82 49.8321 231.215 50.5047 232.718C51.1773 234.22 51.6073 235.938 51.1846 237.543C50.9862 238.326 50.6039 239.045 50.3466 239.809C50.0953 240.647 49.9303 241.509 49.8541 242.38C49.5253 245.326 49.4663 248.296 49.6777 251.253C49.6812 251.615 49.7574 251.972 49.9019 252.304C50.0526 252.597 50.3172 252.906 50.1886 253.211C50.1371 253.332 50.0269 253.42 49.9717 253.541C49.8174 253.879 50.1298 254.232 50.4128 254.47C50.3624 254.561 50.294 254.64 50.2118 254.703C50.1297 254.766 50.0355 254.812 49.935 254.838C50.1396 254.967 50.297 255.16 50.3837 255.386C50.4704 255.612 50.4819 255.86 50.4165 256.094C50.1629 256.13 50.1481 256.516 50.3099 256.718C50.4716 256.92 50.7178 257.048 50.8318 257.276C50.8994 257.464 50.8925 257.671 50.8125 257.854C50.7326 258.037 50.5856 258.182 50.4018 258.26C50.0284 258.406 49.6202 258.436 49.2293 258.349C48.5647 258.257 47.9084 258.114 47.2666 257.919C47.05 257.866 46.8455 257.772 46.6638 257.643C46.34 257.329 46.147 256.904 46.1235 256.454C45.9734 255.235 45.9279 254.007 45.9875 252.781C46.0941 246.846 45.9875 240.904 45.7302 234.973C45.6237 232.585 44.9069 230.257 43.9807 228.053C43.4704 226.923 42.9012 225.819 42.2753 224.748C40.9448 222.302 39.7613 219.606 40.07 216.834C40.1031 216.536 40.2134 216.176 40.5074 216.128C40.623 216.116 40.74 216.135 40.8455 216.184C41.4605 216.473 42.056 216.801 42.6281 217.168C43.5696 217.722 44.6316 218.039 45.7229 218.093Z" fill="#464353"/>
<path opacity="0.05" d="M45.7229 218.093C44.9878 218.332 44.657 219.257 44.793 220.029C44.929 220.8 45.3921 221.461 45.7743 222.14C46.8549 224.076 47.3254 226.291 48.2332 228.31C48.9132 229.82 49.8321 231.215 50.5047 232.718C51.1773 234.22 51.6073 235.938 51.1846 237.543C50.9862 238.326 50.6039 239.045 50.3466 239.809C50.0953 240.647 49.9303 241.509 49.8541 242.38C49.5253 245.326 49.4663 248.296 49.6777 251.253C49.6812 251.615 49.7574 251.972 49.9019 252.304C50.0526 252.597 50.3172 252.906 50.1886 253.211C50.1371 253.332 50.0269 253.42 49.9717 253.541C49.8174 253.879 50.1298 254.232 50.4128 254.47C50.3624 254.561 50.294 254.64 50.2118 254.703C50.1297 254.766 50.0355 254.812 49.935 254.838C50.1396 254.967 50.297 255.16 50.3837 255.386C50.4704 255.612 50.4819 255.86 50.4165 256.094C50.1629 256.13 50.1481 256.516 50.3099 256.718C50.4716 256.92 50.7178 257.048 50.8318 257.276C50.8994 257.464 50.8925 257.671 50.8125 257.854C50.7326 258.037 50.5856 258.182 50.4018 258.26C50.0284 258.406 49.6202 258.436 49.2293 258.349C48.5647 258.257 47.9084 258.114 47.2666 257.919C47.05 257.866 46.8455 257.772 46.6638 257.643C46.34 257.329 46.147 256.904 46.1235 256.454C45.9734 255.235 45.9279 254.007 45.9875 252.781C46.0941 246.846 45.9875 240.904 45.7302 234.973C45.6237 232.585 44.9069 230.257 43.9807 228.053C43.4704 226.923 42.9012 225.819 42.2753 224.748C40.9448 222.302 39.7613 219.606 40.07 216.834C40.1031 216.536 40.2134 216.176 40.5074 216.128C40.623 216.116 40.74 216.135 40.8455 216.184C41.4605 216.473 42.056 216.801 42.6281 217.168C43.5696 217.722 44.6316 218.039 45.7229 218.093Z" fill="black"/>
<path d="M35.6814 210.877C35.2936 210.629 34.8473 210.489 34.3876 210.469C33.8581 210.552 33.3668 210.796 32.9799 211.167C32.489 211.546 32.0226 211.956 31.5832 212.393C30.6714 213.364 30.0359 214.561 29.7425 215.859C29.4491 217.158 29.5085 218.511 29.9146 219.779C30.3593 221.098 31.1642 222.262 31.9581 223.4L33.5753 225.721C36.0416 229.262 38.5115 232.802 41.0954 236.258C41.0978 236.341 41.126 236.421 41.1761 236.486C41.2262 236.552 41.2956 236.601 41.3747 236.625C41.4702 236.651 41.5842 236.647 41.643 236.724C41.6689 236.773 41.6804 236.828 41.6761 236.882C41.6671 237.133 41.6187 237.381 41.5327 237.617C41.4905 237.694 41.48 237.785 41.5033 237.87C41.5842 238.065 41.9407 237.955 42.051 238.138C42.1282 238.256 42.051 238.414 41.9334 238.506C41.8157 238.597 41.7128 238.722 41.7312 238.873C41.7496 239.023 41.9958 239.163 41.9848 239.347C41.9848 239.449 41.8966 239.527 41.8341 239.607C41.746 239.736 41.7058 239.891 41.7206 240.046C41.7354 240.201 41.8042 240.346 41.915 240.456C42.084 242.145 41.1799 243.743 40.9851 245.432C40.6947 248.087 41.8966 250.68 42.0436 253.347C42.0362 253.646 42.0926 253.944 42.209 254.221C42.4589 254.68 43.0985 254.955 43.0764 255.48C43.031 255.696 42.9709 255.908 42.8963 256.116C42.901 256.42 42.933 256.724 42.9919 257.023C42.9919 257.328 42.7346 257.691 42.4516 257.574C42.6648 258.279 42.8534 258.99 43.0176 259.708L48.6778 260.174C48.7379 259.665 48.7206 259.15 48.6264 258.646C48.5088 258.103 48.2588 257.592 48.1339 257.049C48.0505 256.782 48.0274 256.501 48.0662 256.225C48.105 255.948 48.2047 255.684 48.3581 255.451C48.2098 255.453 48.0655 255.403 47.9511 255.309C47.8366 255.214 47.7594 255.083 47.7332 254.937C47.6818 254.646 47.6818 254.349 47.7332 254.059C47.8839 252.59 47.2628 251.121 47.2812 249.652C47.2995 248.484 47.7075 247.364 47.917 246.218C48.3581 243.765 47.8986 241.102 48.9902 238.873C49.6518 237.521 50.567 236.023 49.8246 234.715C49.457 234.069 48.8138 233.614 48.3948 233.019C48.0512 232.447 47.7925 231.828 47.6267 231.182C46.7519 228.479 45.3442 225.986 44.1056 223.426C43.7634 222.783 43.5087 222.098 43.3484 221.388C43.2607 220.765 43.23 220.136 43.2565 219.507C43.253 218.378 43.183 217.25 43.047 216.128C43.0208 215.636 42.8798 215.157 42.6354 214.729C42.3956 214.407 42.0961 214.134 41.7533 213.925C39.8971 212.662 37.6845 211.931 35.6814 210.877Z" fill="#464353"/>
<path d="M42.4627 267.423C43.0052 267.611 43.5818 267.68 44.1534 267.625C44.1975 267.159 44.8223 267.056 45.2891 267.078C45.5154 267.071 45.7396 267.123 45.9397 267.229C46.0573 267.302 46.1455 267.412 46.2631 267.49C46.4656 267.601 46.6933 267.66 46.9247 267.658L49.3542 267.864C50.4384 267.956 51.5595 268.04 52.5849 267.651C52.787 267.59 52.9661 267.47 53.0995 267.306C53.3751 266.913 53.0995 266.347 52.7319 266.061C52.3644 265.774 51.8608 265.642 51.4749 265.348C50.6332 264.706 50.5156 263.512 50.0672 262.543C49.753 261.934 49.3627 261.367 48.9058 260.857C48.5753 260.418 48.1899 260.023 47.759 259.682C46.7814 258.976 45.6603 258.991 44.5173 258.892C43.705 258.819 42.9442 258.771 42.3671 259.487C41.632 260.376 41.9334 262.168 41.9775 263.229C42.0306 264.638 42.1928 266.04 42.4627 267.423Z" fill="#514E7F"/>
<path d="M101.832 224.825H73.1528V253.482H101.832V224.825Z" fill="white"/>
<path d="M95.9664 238.193C95.9664 241.462 94.4337 243.519 92.0116 243.519C90.773 243.519 89.8284 242.858 89.663 241.877H89.4866C89.281 242.374 88.9246 242.794 88.4677 243.078C88.0108 243.362 87.4763 243.495 86.9395 243.46C84.7856 243.46 83.3485 241.734 83.3485 239.167C83.3485 236.702 84.7967 234.987 86.9101 234.987C87.4094 234.968 87.9036 235.094 88.3324 235.35C88.7612 235.606 89.1061 235.982 89.3248 236.431H89.5013V235.204H91.2618V240.915C91.2438 241.066 91.2595 241.218 91.308 241.362C91.3565 241.506 91.4365 241.637 91.5421 241.746C91.6477 241.855 91.7763 241.939 91.9186 241.993C92.0608 242.046 92.2131 242.066 92.3644 242.053C93.5847 242.053 94.3639 240.584 94.3639 238.271C94.3639 234.598 91.6073 232.141 87.5386 232.141C83.4698 232.141 80.6471 235.079 80.6471 239.222C80.6471 243.464 83.4845 246.174 87.9024 246.174C88.707 246.178 89.5103 246.109 90.3025 245.968C90.4793 245.939 90.6605 245.979 90.8086 246.08C90.9567 246.181 91.0604 246.335 91.0981 246.51C91.1359 246.685 91.1049 246.868 91.0115 247.02C90.9182 247.173 90.7696 247.284 90.5965 247.331C89.6897 247.536 88.7624 247.637 87.8326 247.632C82.4627 247.632 79.0115 244.327 79.0115 239.185C79.0115 234.161 82.5216 230.712 87.6341 230.712C92.5592 230.683 95.9664 233.75 95.9664 238.193ZM85.2524 239.207C85.2524 240.838 86.0169 241.826 87.2666 241.826C88.5824 241.826 89.413 240.812 89.413 239.207C89.413 237.602 88.5824 236.611 87.2886 236.611C85.9949 236.611 85.2524 237.573 85.2524 239.207Z" fill="#D85517"/>
<path d="M67.544 201.085C70.6396 201.085 73.1491 198.578 73.1491 195.485C73.1491 192.392 70.6396 189.884 67.544 189.884C64.4484 189.884 61.939 192.392 61.939 195.485C61.939 198.578 64.4484 201.085 67.544 201.085Z" fill="#A1616A"/>
<path d="M62.2588 197.145C61.4539 197.839 60.3034 197.879 59.2486 197.997C56.9946 198.226 54.8007 198.861 52.7724 199.87C52.4961 199.992 52.2464 200.166 52.0373 200.384C51.86 200.622 51.7348 200.895 51.6698 201.185C51.4782 201.815 51.406 202.475 51.4566 203.131C51.5301 203.77 51.7129 204.391 51.9969 204.967C52.775 206.578 53.9769 207.946 55.4739 208.926C55.728 209.113 56.0147 209.25 56.3192 209.33C57.0543 209.485 57.771 209.055 58.4951 208.864C59.1577 208.693 59.8557 208.716 60.5056 208.93C61.1157 209.132 61.7589 209.503 62.3433 209.257C62.7225 209.044 63.018 208.709 63.1813 208.306C63.7542 207.22 64.2647 206.103 64.7103 204.96C64.871 204.517 65.0563 204.083 65.2653 203.66C65.9159 202.422 67.0406 201.456 67.5992 200.186C67.6559 200.087 67.6898 199.978 67.6987 199.865C67.7076 199.751 67.6912 199.638 67.6507 199.532C67.5472 199.389 67.4041 199.279 67.2391 199.216C66.4116 198.743 65.6576 198.151 65.0007 197.461C64.6331 197.093 63.9532 196.153 63.4239 196.069C62.8432 195.992 62.6631 196.799 62.2588 197.145Z" fill="#A1616A"/>
<path d="M62.3911 208.526C61.7405 208.838 60.976 208.699 60.2703 208.552C58.4546 208.185 56.6206 207.788 54.9409 207.002C54.4155 206.804 53.9603 206.455 53.6324 205.999C53.4248 205.61 53.2997 205.183 53.2649 204.743L52.9561 202.661C52.8496 201.926 53.037 201.258 53.0517 200.524C53.0634 200.442 53.0587 200.358 53.0379 200.278C53.0171 200.198 52.9805 200.123 52.9304 200.057C52.8278 199.972 52.6956 199.931 52.5629 199.943C51.7212 199.943 51.214 200.836 50.6222 201.434C50.2834 201.779 49.8783 202.051 49.4314 202.235C48.8911 202.455 48.2258 202.602 48.009 203.149C47.9171 203.373 47.9281 203.631 47.8362 203.855C47.4687 204.751 45.8515 204.453 45.4435 205.324C45.3259 205.573 45.3332 205.889 45.1384 206.088C44.9436 206.286 44.5871 206.278 44.2931 206.33C43.1243 206.521 42.5546 207.872 41.5549 208.508C40.7132 209.044 39.6289 209.033 38.7247 209.452C38.254 209.733 37.7625 209.979 37.2546 210.186C36.6917 210.284 36.1189 210.313 35.5491 210.271C35.4877 210.265 35.4257 210.272 35.367 210.291C35.3083 210.31 35.254 210.34 35.2073 210.381C35.1737 210.435 35.1514 210.496 35.1419 210.559C35.1324 210.622 35.1359 210.686 35.1522 210.748C35.4299 212.517 36.164 214.183 37.2822 215.583C38.4004 216.982 39.8641 218.066 41.5291 218.729C41.7213 218.791 41.9043 218.878 42.0731 218.989C42.584 219.357 42.6722 220.19 43.2492 220.458C43.4586 220.53 43.6835 220.543 43.8998 220.497C44.1161 220.45 44.3156 220.345 44.4768 220.194C44.792 219.887 45.0878 219.561 45.3626 219.217C45.8912 218.668 46.5837 218.304 47.3364 218.181C48.031 218.071 48.8065 218.152 49.3689 217.726C49.5989 217.515 49.8126 217.286 50.0084 217.043C50.4305 216.652 50.932 216.356 51.4786 216.176C52.9482 215.609 54.4994 215.282 56.0729 215.207C57.5431 215.122 59.0684 215.258 60.4614 214.777C60.8239 214.667 61.1578 214.479 61.4391 214.226C61.7399 213.902 61.9635 213.514 62.0933 213.091C62.6001 211.624 62.7029 210.047 62.3911 208.526Z" fill="#514E7F"/>
<path d="M55.165 200.274C55.5803 200.237 55.9956 200.274 56.4109 200.274C56.8998 200.274 57.3813 200.156 57.8811 200.153C58.6539 200.165 59.4024 200.424 60.0174 200.892C60.6323 201.36 61.0815 202.012 61.2993 202.753C61.3413 202.871 61.3489 202.998 61.3214 203.12C61.305 203.181 61.2674 203.233 61.2155 203.268C61.1635 203.303 61.1006 203.318 61.0383 203.311C60.8773 202.869 60.6665 202.446 60.4098 202.051C59.9435 201.421 59.2821 200.961 58.528 200.744C57.7741 200.531 56.9799 200.502 56.2125 200.659C55.8964 200.718 55.584 200.803 55.2715 200.891L53.7462 201.302C53.4706 201.376 53.1949 201.453 52.9266 201.552C52.7208 201.625 52.3643 201.919 52.1621 201.919C51.8864 201.919 52.1106 201.68 52.2319 201.519C52.4752 201.186 52.8173 200.938 53.2096 200.81C53.8368 200.551 54.4935 200.371 55.165 200.274Z" fill="#514E7F"/>
<path d="M58.9435 217.098C59.311 218.259 59.6786 219.419 60.1233 220.55C60.9371 222.512 61.9625 224.379 63.1813 226.118C63.9652 227.263 64.808 228.366 65.7063 229.423C66.831 230.749 68.088 232.082 68.485 233.775C68.7166 234.752 68.6394 235.777 68.7349 236.776C68.8305 237.775 69.1576 238.836 69.9662 239.435C70.5802 239.814 71.2755 240.043 71.9951 240.103C72.5023 240.184 73.1381 240.21 73.4028 239.769C73.4954 239.59 73.5434 239.39 73.5424 239.189L73.6637 237.72C73.6931 237.404 73.8034 236.985 74.1195 236.985C74.4356 236.985 74.5973 237.393 74.8546 237.58C74.9504 237.632 75.0558 237.663 75.1643 237.673C75.2728 237.682 75.3821 237.669 75.4854 237.635C75.5887 237.6 75.6838 237.545 75.765 237.472C75.8461 237.4 75.9116 237.312 75.9572 237.213C76.1194 236.801 76.1299 236.346 75.9866 235.927C75.7684 235.096 75.3769 234.32 74.8379 233.651C74.2989 232.981 73.6245 232.433 72.8588 232.042C72.3258 231.823 71.814 231.557 71.3298 231.245C70.8371 230.821 70.4293 230.307 70.1279 229.732C67.3456 225.159 64.5523 220.55 62.5932 215.589C62.2068 214.7 61.9458 213.762 61.8177 212.801C61.7779 211.82 61.8184 210.837 61.939 209.863C62.0583 208.098 61.8983 206.326 61.4649 204.611C61.3693 204.161 61.1991 203.731 60.9613 203.337C60.1564 202.11 58.2562 201.93 57.058 202.775C56.6171 203.114 56.2516 203.542 55.9846 204.03C55.7177 204.518 55.555 205.056 55.5069 205.61C55.4187 206.598 55.9921 207.63 56.2824 208.548C57.1695 211.401 58.0565 214.251 58.9435 217.098Z" fill="#A1616A"/>
<path d="M75.6997 191.526C75.7438 191.059 75.3322 190.637 74.8507 190.34C74.3501 190.08 73.8686 189.786 73.4099 189.458C72.9835 189.091 72.752 188.61 72.3256 188.243C71.8427 187.874 71.2938 187.601 70.7084 187.438C69.4652 187.001 68.1596 186.767 66.8418 186.744C65.54 186.709 64.2555 187.048 63.1406 187.721C62.8949 187.873 62.6814 188.071 62.5121 188.305C62.3519 188.592 62.2483 188.908 62.2071 189.234C61.9681 190.239 61.6448 191.222 61.2404 192.172C60.8251 193.23 60.3804 194.324 59.4027 195.14C58.3552 196.014 56.749 196.517 56.058 197.571C55.9826 197.665 55.9299 197.775 55.9037 197.893C55.8776 198.011 55.8788 198.133 55.9073 198.25C56.0066 198.515 56.3263 198.695 56.6167 198.864C58.3184 199.841 59.785 201.104 60.5421 202.617C60.9386 203.349 61.1168 204.179 61.0555 205.009C60.9943 205.839 60.6962 206.634 60.1966 207.3C59.8033 207.814 59.2594 208.423 59.6453 208.941C60.2297 209.727 62.2475 209.279 62.7106 210.109C62.8068 210.385 62.8283 210.682 62.7731 210.969C62.7731 211.839 63.6148 212.618 64.6366 213.018C65.7161 213.384 66.8486 213.57 67.9886 213.569C68.2968 212.885 68.3271 212.108 68.0731 211.402C67.9972 211.25 67.9678 211.079 67.9886 210.91C68.0684 210.723 68.1949 210.56 68.3561 210.436C69.5874 209.275 69.3265 207.568 68.5877 206.191C67.8489 204.813 66.7022 203.55 66.2758 202.099C66.0626 201.365 66.059 200.568 66.6434 199.969C66.9716 199.682 67.3246 199.423 67.6982 199.198C68.3611 198.746 68.8732 198.107 69.1684 197.362C69.5102 196.407 69.4588 195.257 70.4659 194.626C71.4729 193.994 72.7777 194.199 73.8399 193.792C74.6963 193.45 75.6336 192.205 75.6997 191.526Z" fill="#464353"/>
<path d="M107.129 199.613C110.504 199.613 113.241 196.878 113.241 193.505C113.241 190.132 110.504 187.398 107.129 187.398C103.753 187.398 101.016 190.132 101.016 193.505C101.016 196.878 103.753 199.613 107.129 199.613Z" fill="#FBBEBE"/>
<path d="M112.631 193.248C113.195 194.149 113.935 194.927 114.806 195.536C115.678 196.144 116.663 196.572 117.703 196.792L117.244 198.46C116.45 201.332 115.553 204.373 113.333 206.363C113.429 205.87 113.424 205.362 113.317 204.87C113.21 204.379 113.004 203.915 112.712 203.506C112.125 202.691 111.427 201.962 110.639 201.339L107.121 198.28C107.014 198.201 106.924 198.101 106.857 197.986C106.77 197.771 106.77 197.532 106.857 197.317C107.305 195.922 108.584 195.051 109.621 194.111C110.143 193.624 110.61 193.081 111.014 192.492C111.734 191.5 112.186 192.503 112.631 193.248Z" fill="#FBBEBE"/>
<path d="M113.41 201.148C113.444 201.605 113.383 202.064 113.23 202.496C113.145 202.706 112.986 202.88 112.784 202.983C112.581 203.087 112.348 203.115 112.127 203.061C112.256 202.771 111.918 202.441 111.602 202.477C111.446 202.512 111.302 202.584 111.18 202.687C111.058 202.79 110.963 202.921 110.903 203.069C110.691 203.491 110.62 203.97 110.701 204.435C110.8 205.015 111.135 205.57 111.047 206.15C110.977 206.631 110.62 207.112 110.811 207.564C110.934 207.768 111.088 207.951 111.267 208.107C111.516 208.414 111.637 208.805 111.606 209.198C111.576 209.592 111.395 209.958 111.102 210.223L115.88 210.315C115.704 211.112 116.064 211.927 116.472 212.632C117.614 214.576 119.191 216.229 121.08 217.461C122.969 218.693 125.118 219.472 127.358 219.735C127.238 219.806 127.134 219.903 127.055 220.019C126.976 220.134 126.924 220.266 126.902 220.405C126.88 220.543 126.889 220.684 126.929 220.819C126.968 220.953 127.037 221.077 127.131 221.182C127.52 221.568 128.174 221.52 128.66 221.27C129.119 220.974 129.558 220.647 129.972 220.289C130.752 219.731 131.706 219.47 132.662 219.555C133.261 219.61 133.838 219.801 134.437 219.834C136.202 219.93 137.72 218.659 139.407 218.141C140.645 217.774 142.046 217.774 143.082 216.988C143.53 216.657 143.898 216.114 143.766 215.57C143.655 215.26 143.48 214.977 143.251 214.74C142.652 213.965 142.303 213.036 141.873 212.169C141.025 210.431 139.857 208.869 138.429 207.564C137.354 206.622 136.215 205.757 135.018 204.975C134.727 204.761 134.417 204.576 134.092 204.42C133.659 204.279 133.236 204.107 132.828 203.906C132.265 203.539 131.945 202.933 131.515 202.437C130.571 201.335 129.119 200.832 127.954 199.965C127.175 199.385 126.484 198.621 125.554 198.338C125.102 198.202 124.617 198.191 124.164 198.056C123.135 197.743 122.386 196.829 121.375 196.462C120.577 196.168 119.695 196.245 118.85 196.138C117.919 196.023 117.029 195.687 116.255 195.158C116.003 194.951 115.72 194.785 115.417 194.666C114.141 194.298 114.039 196.656 113.917 197.479C113.726 198.68 113.41 199.91 113.41 201.148Z" fill="#3F3D56"/>
<path d="M114.656 209.121C114.869 211.439 113.116 213.686 113.627 215.96C113.737 216.444 113.943 216.903 114.02 217.392C114.233 218.74 113.428 220.014 112.66 221.142L106.044 230.815C105.782 231.242 105.466 231.633 105.104 231.979C103.839 233.1 101.95 232.982 100.292 233.32C99.1276 233.557 98.028 234.043 97.069 234.745C97.0267 234.778 96.9988 234.827 96.9913 234.88C96.9838 234.933 96.9971 234.988 97.0286 235.031C97.302 235.404 97.6647 235.702 98.0834 235.899C98.502 236.095 98.9633 236.183 99.425 236.155C99.5977 236.383 99.425 236.721 99.1861 236.89C98.8185 237.136 98.3444 237.202 98.2746 237.801C98.2503 238.01 98.2913 238.221 98.3922 238.406C98.6599 238.813 99.0749 239.1 99.5499 239.207C101.832 239.905 104.299 238.678 106.008 237.004C107.717 235.329 108.948 233.232 110.624 231.531C111.554 230.591 112.609 229.787 113.564 228.876C115.472 227.04 116.957 224.836 118.39 222.633C118.858 221.989 119.211 221.27 119.434 220.506C119.611 219.753 119.53 218.953 119.736 218.207C120 217.227 120.717 216.444 121.316 215.636C122.489 214.024 123.268 212.056 123.113 210.069C122.959 208.082 121.728 206.128 119.857 205.452C119.272 205.218 118.628 205.179 118.019 205.342C117.251 205.577 116.685 206.213 116.159 206.811L114.906 208.258C114.592 208.574 114.342 208.949 114.171 209.36C114.091 209.568 114.072 209.795 114.118 210.013C114.163 210.231 114.271 210.432 114.428 210.59" fill="#FBBEBE"/>
<path d="M117.994 199.598C117.126 199.649 116.156 199.734 115.557 200.333C115.301 200.617 115.094 200.942 114.947 201.295C114.351 202.503 113.77 203.77 113.73 205.118C113.693 206.194 114.006 207.248 114.171 208.313C114.307 209.198 113.962 210.102 113.895 210.998C115.094 210.672 116.257 210.225 117.365 209.665C118.006 209.247 118.687 208.894 119.398 208.611C120.43 208.265 122.173 208.857 123.15 209.345C123.205 208.655 122.687 207.454 122.742 206.774C122.749 206.483 122.801 206.194 122.897 205.919C123.043 205.627 123.216 205.351 123.415 205.092C123.791 204.483 123.964 203.771 123.909 203.058C123.854 202.344 123.574 201.667 123.11 201.122C122.239 200.142 120.871 199.774 119.567 199.62C118.744 199.526 117.916 199.498 117.089 199.536" fill="#3F3D56"/>
<path d="M99.0759 187.365L98.9362 186.215C99.9028 186.461 100.818 185.646 101.436 184.798C102.053 183.949 102.623 182.961 103.56 182.594C104.703 182.164 105.912 182.851 107.004 183.417C108.223 184.105 109.565 184.549 110.955 184.724C111.176 184.734 111.396 184.769 111.609 184.831C112.319 185.084 112.657 185.973 112.76 186.781C112.863 187.589 112.833 188.448 113.182 189.168C113.451 189.712 113.917 190.119 114.182 190.637C114.917 192.08 114.208 194.056 114.998 195.474L113.039 193.682C112.859 193.516 112.605 193.344 112.41 193.483C112.216 193.623 112.241 193.851 112.175 194.023C112.12 194.15 112.039 194.264 111.938 194.359C111.837 194.454 111.717 194.527 111.587 194.574C111.457 194.621 111.318 194.642 111.18 194.634C111.042 194.627 110.906 194.591 110.782 194.53C110.287 194.248 109.861 193.859 109.536 193.392C108.722 192.35 107.65 191.539 106.427 191.037C105.896 190.833 105.328 190.744 104.761 190.778C104.193 190.811 103.64 190.966 103.137 191.232C102.222 191.75 101.553 192.951 100.432 192.991C98.8958 193.05 98.2562 190.193 97.5469 189.065C97.8063 188.869 97.9887 188.588 98.0625 188.272C98.1364 187.955 98.097 187.622 97.9512 187.332C98.0578 187.295 99.0538 187.189 99.0759 187.365Z" fill="#464353"/>
<path d="M264.067 291.42C263.77 290.161 263.59 289.059 263.59 289.059C263.614 288.226 263.426 287.401 263.042 286.661V286.316V283.781C263.216 283.322 263.43 282.878 263.681 282.456C264.137 281.662 263.681 278.746 263.681 278.746C263.681 278.746 261.991 274.637 262.399 272.029C262.807 269.422 258.929 260.449 258.929 260.449C258.954 259.581 259.077 258.719 259.297 257.879C259.339 257.703 259.355 257.523 259.344 257.342C259.346 257.32 259.346 257.298 259.344 257.276V257.298C259.286 255.58 257.926 252.355 257.926 252.355L258.109 246.214C258.109 246.214 258.977 242.59 257.562 237.727C257.066 236.03 256.75 234.675 256.547 233.625C256.525 233.507 256.503 233.393 256.485 233.283C259.4 232.839 261.631 232.468 261.631 232.468C261.631 232.468 259.94 225.398 258.797 224.161C257.654 222.923 256.742 219.037 256.742 219.037C256.742 219.037 256.147 214.043 257.11 212.585C258.073 211.127 258.212 208.607 258.212 208.607C258.212 208.607 260.418 207.017 260.679 206.308C261.068 205.302 261.315 204.246 261.414 203.172C261.414 202.331 261.138 201.581 261.23 201.137C261.322 200.693 260.59 199.018 260.958 198.221C261.053 197.976 261.101 197.716 261.101 197.453C261.103 197.446 261.103 197.439 261.101 197.431C261.103 196.735 261.037 196.04 260.906 195.356C260.274 194.821 259.535 194.426 258.738 194.196L258.69 194.009L258.565 193.513C258.496 193.465 258.424 193.422 258.348 193.384V193.201V192.466L258.69 190.85C259.366 188.048 255.617 187.629 255.617 187.629C255.391 187.198 255.012 186.866 254.555 186.696C253.82 186.432 254.43 190.92 254.783 191.206C255.048 191.419 255.886 192.83 256.253 193.52L256.319 193.634C256.257 193.689 256.199 193.749 256.147 193.814L256.29 194.787L256.312 194.938C256.063 195.245 255.861 195.588 255.713 195.955C255.713 195.955 256.4 196.708 256.261 197.549C256.208 198.205 256.285 198.865 256.489 199.492C256.448 199.444 255.967 198.922 255.485 199.051C255.004 199.18 253.647 199.58 253.647 199.58C253.647 199.58 252.64 199.756 252.732 199.977C252.824 200.197 252.049 201.17 252.049 201.17L249.347 198.599C249.318 198.522 249.292 198.445 249.266 198.368C249.156 198.008 249.078 197.64 249.035 197.266C249.328 197.196 249.615 197.104 249.895 196.991C250.174 196.892 250.426 196.729 250.63 196.513C250.856 196.161 251.004 195.764 251.064 195.349C251.277 194.563 251.736 193.862 252.067 193.116C252.612 191.863 252.793 190.482 252.589 189.131C252.547 188.713 252.406 188.31 252.177 187.956C251.736 187.35 250.935 187.104 250.339 186.619C249.744 186.135 249.384 185.4 248.704 185.036C248.058 184.755 247.338 184.693 246.653 184.86C245.302 185.08 244.004 185.551 242.827 186.248C242.43 186.483 242 186.752 241.544 186.671C241.169 186.556 240.844 186.318 240.622 185.995C240.62 185.982 240.62 185.968 240.622 185.955L240.588 185.922C240.305 186.557 240.162 187.246 240.169 187.941C240.169 188.048 240.169 188.154 240.169 188.265C240.169 188.301 240.169 188.338 240.169 188.375C240.171 188.407 240.171 188.438 240.169 188.47C240.168 188.519 240.16 188.567 240.147 188.614C240.092 188.753 240.006 188.878 239.897 188.981C239.813 189.072 239.739 189.173 239.677 189.282C239.677 189.245 239.699 189.208 239.714 189.172C239.54 189.422 239.442 189.716 239.431 190.02C239.416 190.243 239.49 190.462 239.637 190.63C239.77 190.766 239.917 190.889 240.074 190.997C240.022 191.293 239.996 191.593 239.997 191.893C240.001 192.792 240.238 193.674 240.683 194.454C241.129 195.234 241.769 195.887 242.54 196.348L242.632 196.579C243.023 197.507 243.191 198.513 243.121 199.517C243.121 199.591 243.121 199.661 243.088 199.734L242.992 199.844C242.992 199.844 238.53 199.888 237.479 198.937C236.428 197.986 234.829 201.258 234.829 201.258C234.829 201.258 233.23 201.57 232.91 201.258C232.591 200.946 230.705 201.214 230.705 201.214C229.938 200.536 228.943 200.174 227.919 200.201C227.295 199.725 226.605 199.341 225.872 199.062L225.82 199.044C225.498 198.927 225.154 198.885 224.813 198.919C224.813 198.919 222.608 197.105 221.983 196.135C221.358 195.165 218.308 191.555 218.282 191.537V191.364L218.245 190.839C218.155 190.854 218.064 190.862 217.973 190.865C217.973 190.81 217.937 190.751 217.911 190.681C217.735 190.175 217.519 189.684 217.264 189.212C217.264 189.212 217.264 188.551 217.459 188.386C217.654 188.221 217.378 185.789 217.378 185.789C217.378 185.789 215.401 181.173 213.633 184.618C213.633 184.618 210.284 186.847 213.092 189.447C213.092 189.447 214.195 189.987 214.371 190.417C214.478 190.696 214.857 191.478 215.106 191.996L215.22 192.227L215.187 192.253L215.231 192.686V192.855C214.702 193.153 214.346 193.45 214.43 193.678C214.587 194.061 214.695 194.462 214.75 194.872C214.75 194.872 218.635 199.73 219.138 201.809C219.138 201.809 229.555 207.994 232.98 208.438L232.389 211.531C232.3 212.367 232.254 213.208 232.253 214.05C232.297 214.711 231.841 217.722 231.841 217.722C231.841 217.722 231.245 222.13 230.738 222.758C230.231 223.386 230.327 226.03 230.327 226.03C230.208 227.298 229.979 228.554 229.643 229.783C229.139 231.465 229.507 233.54 229.507 233.54C229.507 233.54 227.768 237.518 231.929 234.822C231.929 234.822 233.969 234.697 236.34 234.616C236.34 234.694 236.34 234.771 236.34 234.851C236.34 235.153 236.34 235.479 236.34 235.825C236.31 238.102 236.296 241.242 236.398 243.618C236.582 247.816 237.869 256.105 237.869 256.105V260.277C237.789 260.67 237.749 261.07 237.751 261.47C237.72 262.942 238.11 264.392 238.876 265.65L239.195 268.434C239.195 268.434 239.931 270.27 239.96 271.372C239.957 271.461 239.946 271.549 239.927 271.636C239.899 271.776 239.887 271.919 239.89 272.062C239.85 273.326 240.625 276.352 240.625 276.352C240.625 276.352 240.673 279.4 241.129 279.576C241.518 279.727 240.607 281.336 240.335 281.78C240.327 281.751 240.321 281.721 240.316 281.692C240.283 281.751 240.261 281.784 240.261 281.784C240.166 282.03 240.118 282.291 240.118 282.555C240.091 282.763 240.125 282.975 240.215 283.165C240.305 283.355 240.447 283.515 240.625 283.627C241.493 284.16 241.959 284.6 241.224 284.777C240.953 284.818 240.684 284.874 240.419 284.946C240.419 284.913 240.39 284.876 240.379 284.843C240.283 284.886 240.203 284.959 240.151 285.051C240.1 285.143 240.079 285.249 240.092 285.353C240.1 285.714 240.195 286.068 240.368 286.385C240.69 287.183 241.105 287.939 241.603 288.64L241.97 288.6C241.917 288.73 241.848 288.854 241.765 288.967C241.633 289.159 241.456 289.315 241.25 289.423C241.059 289.536 240.846 289.61 240.625 289.639C240.377 289.646 240.134 289.705 239.91 289.814C239.687 289.922 239.49 290.077 239.331 290.267C238.876 290.855 238.596 291.659 239.49 292.364L242.757 293.488C242.757 293.488 248.377 294.223 248.079 292.959C247.781 291.696 247.601 290.598 247.601 290.598C247.623 289.827 247.466 289.061 247.142 288.361C247.085 288.245 247.019 288.135 246.943 288.031L247.142 288.009C247.142 288.009 247.553 285.225 248.101 284.703C248.23 284.582 248.259 284.487 248.226 284.413C248.285 284.263 248.142 284.174 247.958 284.123L247.917 284.233C247.738 284.196 247.556 284.176 247.373 284.174C247.373 284.174 247.19 282.705 247.781 282.184C247.83 282.124 247.865 282.054 247.885 281.979C247.906 281.905 247.91 281.827 247.899 281.751C247.902 281.55 247.881 281.351 247.837 281.156L247.814 281.192C247.477 280.014 247.038 278.868 246.502 277.766C246.502 277.766 246.458 276.44 246.822 275.907C247.186 275.375 246.778 268.705 246.778 268.705C246.778 268.705 246.914 265.481 246.502 263.979C246.091 262.477 247.006 260.707 247.006 260.707V260.611V260.589C247.006 260.589 246.984 260.391 246.951 260.079V260.112C246.859 259.256 246.686 257.71 246.557 256.997C246.374 255.98 246.602 251.121 246.602 251.121L247.425 249.046L248.895 252.623L250.446 257.398C250.889 257.989 251.162 258.69 251.236 259.425C251.236 259.476 251.236 259.528 251.236 259.575C251.229 259.682 251.229 259.789 251.236 259.895C251.21 260.498 251.376 261.093 251.71 261.595C251.71 261.595 252.122 263.85 252.762 264.423C253.401 264.996 253.401 266.102 253.401 266.102C253.401 266.102 254.177 269.374 254.544 269.947C254.853 270.432 254.868 271.761 254.864 272.15V272.272C254.864 272.272 254.971 273.439 254.967 274.424C254.967 274.541 254.967 274.662 254.967 274.791V274.765C254.966 275.032 254.934 275.299 254.871 275.559V275.606C254.871 275.551 254.871 275.492 254.871 275.441C254.708 276.108 254.629 276.793 254.636 277.479C254.614 278.655 254.794 280.05 255.507 280.862C256.742 282.276 257.518 282.099 257.518 282.099C257.518 282.099 256.922 283.866 256.191 284.222C256.164 284.235 256.138 284.251 256.114 284.27C256.114 284.237 256.114 284.2 256.095 284.167C256.016 284.257 255.956 284.361 255.919 284.475C255.883 284.589 255.87 284.709 255.882 284.828C255.915 285.772 256.23 286.684 256.786 287.447C256.958 287.619 257.17 287.745 257.404 287.814L257.29 287.884C257.208 287.929 257.123 287.969 257.036 288.005C256.92 288.056 256.795 288.088 256.669 288.1C256.421 288.107 256.177 288.166 255.954 288.275C255.731 288.383 255.533 288.538 255.375 288.728C254.919 289.316 254.64 290.12 255.533 290.825L258.8 291.949C258.8 291.949 264.35 292.699 264.067 291.42Z" fill="url(#paint0_linear)"/>
<path d="M242.603 293.506L239.438 292.383C238.567 291.678 238.846 290.873 239.288 290.286C239.438 290.097 239.627 289.943 239.843 289.834C240.059 289.726 240.296 289.665 240.537 289.658C240.752 289.629 240.959 289.555 241.144 289.441C241.344 289.331 241.516 289.175 241.643 288.986C241.878 288.62 242.005 288.196 242.011 287.763C242.011 287.763 245.484 286.749 246.422 287.763C246.592 287.947 246.734 288.155 246.844 288.38C247.157 289.083 247.308 289.847 247.285 290.616C247.285 290.616 247.462 291.718 247.748 292.978C248.035 294.237 242.603 293.506 242.603 293.506Z" fill="#2D293D"/>
<path d="M258.08 291.964L254.919 290.84C254.044 290.135 254.324 289.331 254.765 288.747C254.915 288.556 255.105 288.401 255.321 288.292C255.538 288.183 255.776 288.123 256.018 288.115C256.145 288.104 256.269 288.072 256.386 288.02C256.469 287.985 256.55 287.945 256.628 287.898C257.514 287.414 257.492 286.22 257.492 286.22C257.492 286.22 260.962 285.203 261.903 286.22C262.03 286.357 262.141 286.509 262.233 286.672C262.607 287.416 262.79 288.241 262.766 289.074C262.766 289.074 262.943 290.175 263.229 291.435C263.516 292.695 258.08 291.964 258.08 291.964Z" fill="#2D293D"/>
<path opacity="0.1" d="M246.425 287.762C246.595 287.946 246.738 288.154 246.848 288.379L241.644 288.982C241.878 288.616 242.005 288.193 242.011 287.759C242.011 287.759 245.477 286.749 246.425 287.762Z" fill="black"/>
<path opacity="0.1" d="M262.237 286.657V287.63C261.429 288.963 257.514 288.673 256.378 287.997C256.462 287.963 256.543 287.922 256.621 287.876C257.507 287.391 257.485 286.198 257.485 286.198C257.485 286.198 260.954 285.18 261.895 286.198C262.027 286.337 262.141 286.491 262.237 286.657Z" fill="black"/>
<path d="M262.858 282.459C262.614 282.883 262.406 283.326 262.237 283.785V287.278C261.355 288.747 256.753 288.251 256.136 287.454C255.518 286.657 254.853 284.582 255.559 284.229C256.264 283.877 256.841 282.107 256.841 282.107C256.841 282.107 256.106 282.283 254.897 280.869C253.688 279.455 254.059 276.319 254.28 275.566C254.5 274.813 254.28 272.297 254.28 272.297C254.28 272.297 254.324 270.531 253.971 269.954C253.618 269.377 252.868 266.109 252.868 266.109C252.868 266.109 252.868 265.007 252.251 264.43C251.633 263.854 251.233 261.603 251.233 261.603C250.871 261.039 250.715 260.369 250.792 259.704C250.924 258.602 250.038 257.405 250.038 257.405L248.535 252.63L247.12 249.05L246.326 251.125C246.326 251.125 246.102 255.987 246.282 257.001C246.462 258.014 246.723 260.71 246.723 260.71C246.723 260.71 245.837 262.48 246.238 263.982C246.638 265.484 246.502 268.709 246.502 268.709C246.502 268.709 246.899 275.382 246.546 275.915C246.194 276.447 246.238 277.751 246.238 277.751C246.238 277.751 248.05 281.64 247.473 282.158C246.896 282.676 247.076 284.149 247.076 284.149C247.076 284.149 248.314 284.149 247.785 284.677C247.256 285.206 246.855 287.983 246.855 287.983L241.5 288.659C241.017 287.954 240.615 287.198 240.302 286.404C239.596 284.769 240.434 284.934 241.147 284.769C241.86 284.604 241.408 284.152 240.566 283.62C239.725 283.087 240.199 281.897 240.199 281.897C240.199 281.897 241.482 279.73 241.041 279.554C240.6 279.378 240.552 276.33 240.552 276.33C240.552 276.33 239.67 272.705 239.89 271.735C240.111 270.766 239.181 268.43 239.181 268.43L238.872 265.646C237.93 264.063 237.59 262.193 237.916 260.38V256.079C237.916 256.079 236.678 247.772 236.498 243.592C236.387 240.904 236.417 237.235 236.454 234.943C236.476 233.661 236.498 232.809 236.498 232.809L255.61 230.823C255.641 231.776 255.758 232.725 255.959 233.658C256.154 234.704 256.459 236.063 256.937 237.76C258.308 242.619 257.47 246.244 257.47 246.244L257.294 252.384C257.294 252.384 258.973 256.494 258.62 257.893C258.402 258.734 258.279 259.596 258.253 260.464C258.253 260.464 262.013 269.436 261.616 272.044C261.219 274.651 262.858 278.743 262.858 278.743C262.858 278.743 263.299 281.681 262.858 282.459Z" fill="#464353"/>
<path opacity="0.05" d="M251.935 259.439L257.735 258.664C257.735 258.664 254.456 262.021 251.935 259.439Z" fill="black"/>
<path opacity="0.1" d="M256.908 252.987C256.908 252.987 257.11 255.04 255.849 255.814C255.849 255.814 258.102 255.462 256.908 252.987Z" fill="black"/>
<path opacity="0.1" d="M256.551 246.446C256.551 246.446 251.692 250.445 249.935 250.118C248.179 249.791 256.551 246.446 256.551 246.446Z" fill="black"/>
<path opacity="0.1" d="M244.724 261.316C244.724 261.316 241.048 262.157 240.923 263.637C240.798 265.117 244.724 261.316 244.724 261.316Z" fill="black"/>
<path opacity="0.05" d="M245.536 279.741C245.536 279.741 240.32 280.715 241.801 281.379C243.072 281.881 244.381 282.279 245.716 282.569C245.716 282.569 247.396 282.658 245.536 279.741Z" fill="black"/>
<g opacity="0.05">
<path opacity="0.05" d="M240.747 282.415C240.615 282.333 240.504 282.222 240.421 282.091C240.339 281.96 240.286 281.812 240.269 281.658L240.217 281.754C240.217 281.754 239.728 282.944 240.585 283.476C240.68 283.535 240.772 283.598 240.857 283.656C241.011 283.627 241.18 283.605 241.338 283.565C242.037 283.403 241.588 282.959 240.747 282.415Z" fill="black"/>
<path opacity="0.05" d="M247.469 282.077C247.612 281.945 247.605 281.603 247.52 281.166C247.307 281.559 247.204 282.002 247.223 282.448C247.275 282.307 247.359 282.18 247.469 282.077Z" fill="black"/>
<path opacity="0.05" d="M246.664 260.093C246.468 260.615 246.344 261.161 246.296 261.716C246.397 261.338 246.533 260.969 246.701 260.615C246.701 260.615 246.708 260.402 246.664 260.093Z" fill="black"/>
<path opacity="0.05" d="M258.613 257.772C258.648 257.613 258.664 257.45 258.661 257.287C258.595 257.618 258.55 257.926 258.517 258.194C258.547 258.055 258.576 257.915 258.613 257.772Z" fill="black"/>
<path opacity="0.05" d="M246.539 275.804C246.641 275.488 246.686 275.156 246.671 274.824C246.506 275.216 246.42 275.636 246.418 276.061C246.448 275.971 246.488 275.885 246.539 275.804Z" fill="black"/>
<path opacity="0.05" d="M247.634 284.134C247.361 285.021 247.158 285.929 247.028 286.848L241.68 287.468C241.195 286.766 240.793 286.009 240.482 285.214C240.425 285.087 240.374 284.957 240.331 284.824C240.011 284.971 239.883 285.302 240.305 286.293C240.616 287.088 241.018 287.843 241.504 288.545L246.848 287.924C246.848 287.924 247.248 285.14 247.778 284.619C248.039 284.336 247.873 284.204 247.634 284.134Z" fill="black"/>
<path opacity="0.05" d="M240.57 276.197C240.57 276.197 240.614 279.249 241.055 279.426C241.279 278.922 241.423 278.445 241.228 278.364C240.787 278.188 240.743 275.14 240.743 275.14C240.743 275.14 239.857 271.515 240.081 270.542C240.305 269.568 239.372 267.236 239.372 267.236L239.063 264.452C238.117 262.873 237.772 261.006 238.089 259.193V254.9C238.089 254.9 236.851 246.593 236.674 242.395C236.56 239.706 236.593 236.038 236.63 233.746C236.63 233.334 236.63 232.967 236.63 232.644H236.479C236.479 232.644 236.457 233.492 236.435 234.778C236.398 237.066 236.365 240.738 236.479 243.427C236.656 247.625 237.894 255.932 237.894 255.932V260.218C237.57 262.048 237.924 263.933 238.89 265.521L239.199 268.305C239.199 268.305 240.129 270.644 239.905 271.61C239.681 272.576 240.57 276.197 240.57 276.197Z" fill="black"/>
<path opacity="0.05" d="M256.312 286.275C255.878 285.646 255.589 284.928 255.467 284.174C254.919 284.666 255.548 286.58 256.136 287.336C256.724 288.093 261.355 288.618 262.241 287.156V286.315C261.042 287.501 256.9 287.028 256.312 286.275Z" fill="black"/>
<path opacity="0.05" d="M263.034 281.28C262.792 281.704 262.586 282.148 262.417 282.606V283.227C262.516 282.999 262.66 282.698 262.858 282.342C263 281.992 263.066 281.617 263.053 281.24L263.034 281.28Z" fill="black"/>
<path opacity="0.05" d="M256.584 281.978C256.753 281.638 256.899 281.287 257.021 280.928C257.021 280.928 256.286 281.104 255.073 279.69C254.206 278.662 254.158 276.719 254.28 275.448C254.059 276.201 253.703 279.338 254.897 280.751C255.68 281.681 256.264 281.919 256.584 281.978Z" fill="black"/>
<path opacity="0.05" d="M254.28 272.179C254.356 273.05 254.386 273.924 254.368 274.798C254.397 274.625 254.43 274.486 254.456 274.387C254.68 273.652 254.456 271.118 254.456 271.118C254.456 271.118 254.5 269.348 254.147 268.775C253.794 268.202 253.045 264.93 253.045 264.93C253.045 264.93 253.045 263.828 252.427 263.251C251.81 262.675 251.409 260.423 251.409 260.423C251.046 259.861 250.889 259.19 250.964 258.525C251.1 257.423 250.229 256.226 250.229 256.226L248.726 251.451L247.293 247.893L246.495 249.968C246.495 249.968 246.495 250.228 246.469 250.64L247.116 248.954L248.531 252.531L250.034 257.305C250.034 257.305 250.917 258.499 250.77 259.601C250.703 260.262 250.865 260.925 251.229 261.481C251.229 261.481 251.626 263.732 252.243 264.309C252.861 264.886 252.865 265.987 252.865 265.987C252.865 265.987 253.6 269.256 253.967 269.833C254.335 270.409 254.28 272.179 254.28 272.179Z" fill="black"/>
</g>
<path d="M257.992 190.876L257.661 192.492L257.679 193.226V193.755L255.842 193.946L255.636 193.579C255.268 192.888 254.46 191.482 254.202 191.265C253.861 190.978 253.254 186.491 253.982 186.759C254.428 186.93 254.795 187.261 255.011 187.688C255.011 187.688 258.646 188.07 257.992 190.876Z" fill="#FFCDD3"/>
<path opacity="0.1" d="M257.694 193.737L255.856 193.928L255.651 193.56C255.899 193.278 256.237 193.09 256.609 193.029C256.98 192.968 257.361 193.038 257.687 193.226L257.694 193.737Z" fill="black"/>
<path d="M258.157 194.611L255.728 195.176L255.676 194.809L255.537 193.836C255.669 193.659 255.836 193.51 256.026 193.398C256.217 193.286 256.428 193.213 256.647 193.183C256.866 193.153 257.089 193.166 257.303 193.223C257.517 193.28 257.717 193.378 257.893 193.513L258.014 194.008L258.157 194.611Z" fill="#DCE6F2"/>
<path d="M218.742 191.052L216.147 192.448L215.912 191.956C215.662 191.438 215.294 190.659 215.176 190.38C215.022 189.95 213.938 189.407 213.938 189.407C211.218 186.81 214.456 184.581 214.456 184.581C216.172 181.132 218.084 185.749 218.084 185.749C218.084 185.749 218.348 188.184 218.161 188.345C217.973 188.507 217.973 189.175 217.973 189.175C218.221 189.648 218.432 190.139 218.602 190.644C218.701 190.901 218.742 191.052 218.742 191.052Z" fill="#FFCDD3"/>
<path opacity="0.1" d="M218.742 191.052L216.147 192.448L215.912 191.956C216.279 191.651 217.577 190.597 218.003 190.644C218.208 190.665 218.415 190.665 218.62 190.644C218.701 190.901 218.742 191.052 218.742 191.052Z" fill="black"/>
<path d="M219.006 191.838L216.088 193.274L216.029 192.646L215.989 192.216C215.989 192.216 217.679 190.766 218.194 190.821C218.448 190.857 218.705 190.857 218.959 190.821L218.992 191.346L219.006 191.838Z" fill="#DCE6F2"/>
<path d="M250.917 201.592C250.917 201.592 238.189 203.028 240.567 202.257C242.224 201.717 242.882 200.667 243.022 199.499C243.086 198.497 242.924 197.493 242.548 196.561C242.246 195.758 241.864 194.988 241.408 194.262C241.408 194.262 251.137 188.915 249.193 193.777C248.89 194.511 248.704 195.288 248.642 196.08C248.582 196.864 248.665 197.653 248.888 198.408C249.257 199.636 249.959 200.738 250.917 201.592Z" fill="#FFCDD3"/>
<path opacity="0.1" d="M249.193 193.773C248.89 194.508 248.704 195.284 248.641 196.076C247.723 196.844 246.719 196.811 245.429 196.811C244.437 196.811 243.338 197.053 242.548 196.576C242.246 195.773 241.864 195.003 241.408 194.276C241.408 194.276 251.137 188.911 249.193 193.773Z" fill="black"/>
<path d="M245.256 197.134C248.163 197.134 250.52 194.779 250.52 191.875C250.52 188.97 248.163 186.615 245.256 186.615C242.35 186.615 239.993 188.97 239.993 191.875C239.993 194.779 242.35 197.134 245.256 197.134Z" fill="#FFCDD3"/>
<path opacity="0.1" d="M250.917 201.592C250.917 201.592 238.189 203.028 240.567 202.257C242.224 201.717 242.882 200.667 243.022 199.499C243.654 198.812 244.926 198.316 245.745 198.056C246.491 197.805 247.296 197.792 248.05 198.019C248.346 198.099 248.628 198.223 248.888 198.386C249.253 199.622 249.956 200.732 250.917 201.592Z" fill="black"/>
<path opacity="0.1" d="M258.157 194.611L255.728 195.176L255.677 194.809C255.936 194.451 256.3 194.182 256.718 194.039C257.137 193.896 257.589 193.885 258.014 194.009L258.157 194.611Z" fill="black"/>
<path opacity="0.1" d="M219.006 191.838L216.088 193.274L216.029 192.646C216.975 192.14 217.958 191.705 218.969 191.346L219.006 191.838Z" fill="black"/>
<path opacity="0.1" d="M255.952 233.639C251.023 234.414 244.007 235.428 242.893 235.09C241.97 234.807 239.023 234.837 236.454 234.925C236.476 233.643 236.498 232.791 236.498 232.791L255.61 230.804C255.638 231.758 255.753 232.707 255.952 233.639Z" fill="black"/>
<path d="M260.866 232.468C260.866 232.468 244.635 235.252 242.893 234.719C241.151 234.187 232.208 234.767 232.208 234.767C228.184 237.459 229.867 233.485 229.867 233.485C229.867 233.485 229.5 231.406 229.999 229.728C230.324 228.496 230.545 227.239 230.661 225.971C230.661 225.971 230.573 223.319 231.058 222.702C231.543 222.085 232.12 217.664 232.12 217.664C232.12 217.664 232.565 214.659 232.521 213.991C232.477 213.323 232.653 211.475 232.653 211.475L233.227 208.379C229.919 207.939 219.826 201.75 219.826 201.75C219.341 199.675 215.581 194.813 215.581 194.813C215.526 194.404 215.423 194.003 215.272 193.619C215.007 192.914 218.988 191.5 218.988 191.5C218.988 191.5 221.95 195.125 222.568 196.094C223.185 197.064 225.31 198.878 225.31 198.878C225.64 198.845 225.973 198.889 226.284 199.007H226.335C227.046 199.287 227.712 199.669 228.312 200.142C229.31 200.117 230.278 200.482 231.01 201.159C231.01 201.159 232.826 200.894 233.135 201.203C233.443 201.511 234.972 201.203 234.972 201.203C234.972 201.203 236.523 197.934 237.545 198.882C238.567 199.829 242.878 199.789 242.878 199.789C243.455 199.025 244.852 198.478 245.73 198.195C246.476 197.945 247.282 197.932 248.035 198.158C248.363 198.25 248.671 198.399 248.946 198.599L251.563 201.17C251.563 201.17 252.299 200.197 252.229 199.976C252.159 199.756 253.114 199.58 253.114 199.58C253.114 199.58 254.397 199.183 254.882 199.047C255.368 198.911 255.816 199.444 255.853 199.488C255.656 198.86 255.581 198.201 255.632 197.545C255.672 196.966 255.482 196.395 255.103 195.955C256.665 192.179 260.16 195.375 260.16 195.375C260.16 195.375 260.557 197.45 260.204 198.247C259.852 199.044 260.572 200.722 260.469 201.163C260.366 201.603 260.645 202.356 260.645 203.194C260.551 204.267 260.314 205.323 259.94 206.334C259.671 207.039 257.551 208.629 257.551 208.629C257.551 208.629 257.418 211.148 256.489 212.606C255.559 214.064 256.121 219.059 256.121 219.059C256.121 219.059 257.003 222.948 258.109 224.201C259.216 225.453 260.866 232.468 260.866 232.468Z" fill="#3F3D56"/>
<path opacity="0.1" d="M237.207 203.407C237.207 203.407 236.722 201.938 236.277 201.813C235.837 201.651 235.409 201.459 234.995 201.24L235.281 200.696C235.281 200.696 236.943 201.152 237.207 201.636C237.472 202.121 237.207 203.407 237.207 203.407Z" fill="black"/>
<path opacity="0.1" d="M228.331 200.178C228.243 200.623 224.31 201.019 224.31 201.019L226.298 199.025L226.35 199.044C227.062 199.323 227.729 199.706 228.331 200.178Z" fill="black"/>
<path d="M216.93 194.468C217.124 194.468 217.282 194.31 217.282 194.115C217.282 193.92 217.124 193.762 216.93 193.762C216.735 193.762 216.577 193.92 216.577 194.115C216.577 194.31 216.735 194.468 216.93 194.468Z" fill="#575988"/>
<path d="M217.382 195.176C217.577 195.176 217.735 195.018 217.735 194.824C217.735 194.629 217.577 194.471 217.382 194.471C217.187 194.471 217.029 194.629 217.029 194.824C217.029 195.018 217.187 195.176 217.382 195.176Z" fill="#575988"/>
<path d="M217.826 195.826C218.021 195.826 218.179 195.668 218.179 195.474C218.179 195.279 218.021 195.121 217.826 195.121C217.632 195.121 217.474 195.279 217.474 195.474C217.474 195.668 217.632 195.826 217.826 195.826Z" fill="#575988"/>
<path d="M218.289 196.535C218.484 196.535 218.642 196.377 218.642 196.183C218.642 195.988 218.484 195.83 218.289 195.83C218.094 195.83 217.937 195.988 217.937 196.183C217.937 196.377 218.094 196.535 218.289 196.535Z" fill="#575988"/>
<path d="M259.977 196.429C260.135 196.429 260.263 196.3 260.263 196.142C260.263 195.984 260.135 195.856 259.977 195.856C259.818 195.856 259.69 195.984 259.69 196.142C259.69 196.3 259.818 196.429 259.977 196.429Z" fill="#575988"/>
<path d="M260.021 197.082C260.179 197.082 260.308 196.954 260.308 196.796C260.308 196.638 260.179 196.509 260.021 196.509C259.863 196.509 259.734 196.638 259.734 196.796C259.734 196.954 259.863 197.082 260.021 197.082Z" fill="#575988"/>
<path d="M260.057 197.732C260.216 197.732 260.344 197.604 260.344 197.446C260.344 197.288 260.216 197.159 260.057 197.159C259.899 197.159 259.771 197.288 259.771 197.446C259.771 197.604 259.899 197.732 260.057 197.732Z" fill="#575988"/>
<path opacity="0.1" d="M237.229 215.379C237.189 215.328 247.153 227.907 254.897 220.638C254.897 220.638 242.665 222.295 237.229 215.379Z" fill="black"/>
<path opacity="0.1" d="M231.503 221.92C231.503 221.92 237.468 222.082 238.093 223.797V225.582C237.924 225.675 237.734 225.723 237.542 225.723C237.349 225.723 237.159 225.675 236.99 225.582C236.388 225.259 232.782 223.426 231.51 224.307L231.503 221.92Z" fill="black"/>
<path d="M231.613 221.92C231.613 221.92 237.317 222.074 237.917 223.709V225.413C237.754 225.502 237.571 225.549 237.385 225.549C237.2 225.549 237.017 225.502 236.854 225.413C236.277 225.101 232.811 223.356 231.613 224.197V221.92Z" fill="#3F3D56"/>
<path opacity="0.1" d="M234.759 208.963C235.368 210.372 236.145 211.702 237.071 212.926C238.08 214.281 239.304 215.462 240.695 216.422C240.695 216.422 234.858 209.797 234.759 208.963Z" fill="black"/>
<path opacity="0.1" d="M232.808 202.052C232.808 202.052 233.804 206.345 236.365 207.803L232.808 202.052Z" fill="black"/>
<path opacity="0.1" d="M231.271 202.485C231.245 202.404 230.385 205.878 234.579 207.803C234.579 207.803 232.807 207.2 231.271 202.485Z" fill="black"/>
<path opacity="0.1" d="M257.33 199.606C257.264 199.606 259.396 200.964 259.977 201.592C259.977 201.592 258.591 199.517 257.33 199.606Z" fill="black"/>
<path d="M243.834 196.638C243.875 196.918 244.021 197.173 244.242 197.35C244.397 197.424 244.567 197.461 244.738 197.461C246.344 197.56 248.013 197.63 249.516 197.013C249.798 196.916 250.05 196.751 250.251 196.531C250.463 196.178 250.596 195.784 250.641 195.375C250.85 194.589 251.295 193.906 251.615 193.142C252.152 191.877 252.331 190.49 252.133 189.131C252.093 188.714 251.956 188.311 251.733 187.956C251.306 187.35 250.531 187.104 249.968 186.619C249.406 186.134 249.042 185.396 248.388 185.033C247.764 184.755 247.066 184.693 246.403 184.856C245.091 185.081 243.834 185.553 242.698 186.248C242.331 186.483 241.897 186.751 241.46 186.67C241.084 186.55 240.762 186.304 240.548 185.973C240.235 186.693 240.1 187.478 240.155 188.261C240.173 188.375 240.173 188.492 240.155 188.606C240.098 188.744 240.015 188.869 239.909 188.973C239.512 189.432 239.265 190.159 239.655 190.622C239.828 190.824 240.089 190.934 240.254 191.14C240.552 191.507 240.449 192.04 240.442 192.514C240.427 192.678 240.469 192.842 240.559 192.98C240.645 193.059 240.75 193.115 240.864 193.142C240.978 193.169 241.097 193.166 241.21 193.134C241.433 193.067 241.668 193.045 241.901 193.068C242.148 193.151 242.36 193.314 242.503 193.531C243.231 194.471 243.522 195.503 243.834 196.638Z" fill="#2D293D"/>
<g opacity="0.1">
<path opacity="0.1" d="M250.384 196.128C250.183 196.347 249.93 196.511 249.649 196.605C248.178 197.226 246.495 197.152 244.893 197.053C244.721 197.056 244.551 197.019 244.396 196.943C244.173 196.768 244.026 196.514 243.985 196.234C243.672 195.099 243.386 194.064 242.643 193.123C242.501 192.905 242.288 192.742 242.04 192.661C241.808 192.637 241.573 192.66 241.349 192.727C241.237 192.759 241.118 192.762 241.004 192.735C240.89 192.708 240.785 192.652 240.699 192.572C240.608 192.435 240.568 192.27 240.585 192.106C240.585 191.632 240.691 191.1 240.394 190.733C240.228 190.527 239.967 190.417 239.795 190.215C239.684 190.064 239.616 189.886 239.599 189.7C239.581 189.513 239.615 189.326 239.695 189.157C239.412 189.605 239.291 190.178 239.618 190.567C239.791 190.769 240.052 190.879 240.217 191.085C240.515 191.452 240.412 191.985 240.405 192.459C240.39 192.623 240.432 192.787 240.522 192.925C240.608 193.005 240.713 193.061 240.827 193.088C240.941 193.115 241.06 193.112 241.173 193.079C241.397 193.012 241.632 192.99 241.864 193.013C242.111 193.096 242.323 193.259 242.467 193.476C243.202 194.42 243.496 195.452 243.808 196.587C243.849 196.867 243.995 197.122 244.216 197.299C244.371 197.372 244.541 197.41 244.712 197.409C246.319 197.508 247.987 197.578 249.491 196.961C249.772 196.864 250.024 196.699 250.226 196.48C250.326 196.352 250.403 196.208 250.454 196.054C250.431 196.08 250.417 196.109 250.384 196.128Z" fill="black"/>
<path opacity="0.1" d="M240.159 188.466C240.231 188.39 240.286 188.298 240.32 188.198C240.338 188.084 240.338 187.968 240.32 187.853C240.275 187.209 240.358 186.562 240.566 185.951L240.537 185.918C240.222 186.637 240.088 187.422 240.144 188.206C240.156 188.292 240.161 188.379 240.159 188.466Z" fill="black"/>
</g>
<path opacity="0.1" d="M242.893 199.826C242.893 199.826 249.468 200.696 250.06 199.708L242.893 199.826Z" fill="black"/>
<path opacity="0.1" d="M255.677 197.108C255.677 197.108 259.326 197.108 260.131 198.482L255.677 197.108Z" fill="black"/>
</g>
<defs>
<linearGradient id="paint0_linear" x1="238.056" y1="293.719" x2="238.056" y2="183.299" gradientUnits="userSpaceOnUse">
<stop stop-color="#808080" stop-opacity="0.25"/>
<stop offset="0.54" stop-color="#808080" stop-opacity="0.12"/>
<stop offset="1" stop-color="#808080" stop-opacity="0.1"/>
</linearGradient>
<clipPath id="clip0">
<rect width="403" height="296" fill="white"/>
</clipPath>
</defs>
</svg>
